<?xml version="1.0" encoding="UTF-8"?>
<svg xmlns="http://www.w3.org/2000/svg" version="1.1" viewBox="0 0 1080 1080">
  <defs>
    <style>
      .cls-1 {
        fill: #fff;
      }
    </style>
  </defs>
  <!-- Generator: Adobe Illustrator 28.7.1, SVG Export Plug-In . SVG Version: 1.2.0 Build 142)  -->
  <g>
    <g id="Camada_1">
      <g>
        <path class="cls-1" d="M864.3,202.5c0-18.2-14.8-33.1-33.1-33.1H248.8c-18.2,0-33.1,14.8-33.1,33.1s14.2,32.4,32,33c-1.1,4.7-1.8,9.5-1.8,14.5v307c0,5,.7,9.8,1.8,14.5-17.7.6-32,15.1-32,33s14.8,33.1,33.1,33.1h261.5c-.4,2.1-.6,4.3-.6,6.5v78.7c-1.6,1-3.1,2.2-4.4,3.5l-112.2,116.6c-5.3,5.5-7.5,13.4-6.1,21.8,1.3,7.5,5.2,14.8,11.2,20.5,6,5.8,13.4,9.5,20.9,10.5,8.4,1.1,16.3-1.4,21.5-6.9l69-71.7v59c0,19.1,14.8,34.5,33.1,34.5s33-15.5,33-34.5v-59.2l79.3,76.3c5.6,5.4,13.6,7.8,22,6.5,7.7-1.1,15.1-5,20.9-11.1,5.8-6.1,9.5-13.6,10.3-21.3.9-8.5-1.8-16.4-7.4-21.8h0l-122.1-117.5c-.9-.9-1.9-1.7-3-2.4v-81.5c0-2.2-.2-4.4-.6-6.5h256.1c18.2,0,33.1-14.9,33.1-33.1s-8.2-25.2-20-30.3c1.6-5.4,2.5-11.2,2.5-17.1V250c0-6-.9-11.7-2.5-17.1,11.7-5.1,20-16.7,20-30.3ZM687.9,858.9c1.9,1.9,1.9,4.8,1.8,6.3-.4,3.5-2.3,7.3-5.2,10.3-2.9,3-6.6,5-10.1,5.6-1.6.2-4.5.3-6.4-1.5l-95.1-91.5c-2.7-2.6-6.7-3.3-10.1-1.9-3.4,1.5-5.7,4.8-5.7,8.6v81.1c0,8.8-6.5,15.9-14.4,15.9s-14.4-7.1-14.4-15.9v-82.2c0-3.8-2.3-7.2-5.9-8.7-1.1-.5-2.3-.7-3.5-.7-2.5,0-5,1-6.7,2.9l-85.1,88.4c-1.6,1.6-4.3,1.6-5.7,1.4-3.5-.5-7.3-2.4-10.4-5.4-3.1-3-5.2-6.7-5.8-10.2-.2-1.4-.4-4.1,1.2-5.7l112.2-116.7c.5-.5,1.3-.9,2.4-1.2,4.2-1,7.3-4.8,7.3-9.1v-84.9c0-2.3.5-4.5,1.3-6.5h26.2c.8,2,1.3,4.2,1.3,6.5v87.2c0,4.1,2.6,7.7,6.5,8.9.9.3,1.7.7,2.2,1.2l122.1,117.5ZM845.6,604.5c0,7.9-6.4,14.4-14.4,14.4H248.8c-8,0-14.4-6.5-14.4-14.4s6.4-14.4,14.4-14.4h582.3c8,0,14.4,6.4,14.4,14.4ZM273.9,557V250c0-5.2,1.3-10,3.4-14.4h538.1c2.1,4.4,3.4,9.2,3.4,14.4v307c0,5.2-1.3,10-3.4,14.4H277.3c-2.1-4.4-3.4-9.2-3.4-14.4ZM831.2,216.9H248.8c-8,0-14.4-6.5-14.4-14.4s6.4-14.4,14.4-14.4h582.3c8,0,14.4,6.5,14.4,14.4s-6.4,14.4-14.4,14.4Z"/>
        <path class="cls-1" d="M743.1,290.7c-6.2-4.6-15-3.4-19.6,2.8l-84.8,112.5-113-56.5c-6.3-3.2-14-1.1-17.9,4.8l-78.1,117.2h-84.3c-7.7,0-14,6.3-14,14s6.3,14,14,14h91.8c4.7,0,9.1-2.3,11.7-6.2l75.4-113.2,112.4,56.2c6,3,13.4,1.3,17.4-4.1l91.8-121.9c4.7-6.2,3.4-15-2.8-19.6Z"/>
      </g>
    </g>
  </g>
</svg>