<?xml version="1.0" encoding="UTF-8"?>
<svg xmlns="http://www.w3.org/2000/svg" version="1.1" viewBox="0 0 1080 1080">
  <defs>
    <style>
      .cls-1 {
        fill: #fff;
      }
    </style>
  </defs>
  <!-- Generator: Adobe Illustrator 28.7.1, SVG Export Plug-In . SVG Version: 1.2.0 Build 142)  -->
  <g>
    <g id="Camada_1">
      <g>
        <path class="cls-1" d="M884.4,300.8c-10.3-10.2-23.9-15.8-38.4-15.9H233.9c-14.5,0-28.1,5.7-38.4,15.9-10.2,10.3-15.8,23.9-15.9,38.4v401.5c0,14.5,5.6,28.1,15.9,38.4,10.3,10.2,23.9,15.9,38.4,15.9h612.1c14.5,0,28.1-5.6,38.4-15.9,10.2-10.3,15.8-23.9,15.9-38.4v-401.5c0-14.4-5.6-28.1-15.9-38.4h0ZM871.1,740.7c0,6.7-2.6,13-7.3,17.7-4.8,4.7-11,7.3-17.7,7.3H233.9c-6.7,0-13-2.6-17.7-7.3-4.7-4.8-7.4-11.1-7.4-17.7v-401.5c0-6.7,2.6-13,7.3-17.7,4.8-4.7,11.1-7.4,17.7-7.4h612.1c6.7,0,13,2.6,17.7,7.3,4.7,4.8,7.3,11.1,7.3,17.7v401.5Z"/>
        <path class="cls-1" d="M686.5,529l-137.7-87.1h0s-94.1-59.6-94.1-59.6c-4.5-2.8-10.2-3-14.9-.5-4.7,2.6-7.6,7.5-7.6,12.8l-1.5,291c0,5.3,2.8,10.2,7.5,12.8,2.2,1.2,4.7,1.9,7.2,1.9s5.3-.7,7.7-2.2l233.4-144.3c4.3-2.7,6.9-7.3,6.9-12.4,0-5-2.5-9.7-6.8-12.4ZM460,659.4l1.3-238.2,189.8,120.1-191,118.1Z"/>
      </g>
    </g>
  </g>
</svg>