<?xml version="1.0" encoding="UTF-8"?>
<svg xmlns="http://www.w3.org/2000/svg" version="1.1" viewBox="0 0 1080 1080">
  <defs>
    <style>
      .cls-1 {
        fill: #fff;
      }
    </style>
  </defs>
  <!-- Generator: Adobe Illustrator 28.7.1, SVG Export Plug-In . SVG Version: 1.2.0 Build 142)  -->
  <g>
    <g id="Camada_1">
      <g>
        <path class="cls-1" d="M411.1,790.7c-16.7-7.2-30-14.7-38.3-19.8-4.5-2.7-7.9-5-10.2-6.6-1.1-.8-2-1.4-2.8-2l-.5-.3c-7.3-5.5-17.4-4.2-23.1,3-5.6,7-4.5,17.4,2.4,23.1,62.2,51.6,119,80.7,173.6,88.9,11.2,1.7,22.3,2.5,33.4,2.5,15.8,0,31.5-1.7,47.7-5.1,21.5-4.5,43.4-11.9,66.6-22.8l13.1,19c3.5,5.1,9.5,7.8,15.6,7.1,6.1-.7,11.3-4.7,13.6-10.4l36.1-91.8c1.9-4.8,1.4-10.3-1.2-14.6-2.7-4.4-7.3-7.4-12.4-8l-98.5-11.1c-6.3-.7-12.4,2.2-15.8,7.5-3.4,5.3-3.5,12.2-.3,17.6l10.3,17.2c-26.6,16-55.3,25.6-85.3,28.6-49.5,4.9-94.7-9.2-124-21.8ZM641.3,796.6c4.9-3.2,6.3-9.7,3.4-14.8l-10.3-17.2,81,9.2-29.9,76.1-12.8-18.5c-3.1-4.5-9-6-13.9-3.6-24.8,12.2-47.7,20.4-70,25.1-25,5.2-49,6-73.4,2.3-32.5-4.9-66.2-18-101.8-39.8,31.4,12.2,75.4,23.6,123.5,18.9,37-3.6,72-16.3,104.1-37.7Z"/>
        <path class="cls-1" d="M698.5,309.1c4.5,2.7,7.9,5,10.2,6.6,1.1.8,2,1.4,2.7,1.9l.6.4c7.3,5.5,17.4,4.2,23.1-3,5.7-7.1,4.6-17.3-2.4-23.1-62.2-51.6-119-80.7-173.6-88.9-27-4-53.5-3.2-81.1,2.6-21.5,4.5-43.4,11.9-66.6,22.8l-13.1-19c-3.5-5.1-9.5-7.8-15.6-7.1-6.1.7-11.3,4.7-13.6,10.4l-36.1,91.8c-1.9,4.8-1.4,10.3,1.2,14.7,2.7,4.4,7.3,7.4,12.4,8l98.5,11.1c.6,0,1.3.1,1.9.1,5.6,0,10.9-2.8,13.9-7.6,3.4-5.3,3.5-12.2.3-17.6l-10.3-17.2c26.6-16,55.3-25.6,85.3-28.6,49.5-4.9,94.7,9.2,124,21.8,16.7,7.2,30,14.7,38.3,19.8ZM534,245.7c-37,3.6-72,16.3-104.1,37.7-4.9,3.2-6.3,9.7-3.3,14.8l10.3,17.2-81-9.2,30-76.1,12.8,18.5c3.1,4.5,9,6,13.9,3.6,24.8-12.2,47.7-20.4,70-25.1,25-5.2,49-6,73.4-2.3,32.5,4.9,66.2,18,101.8,39.8-31.4-12.2-75.4-23.6-123.5-18.9Z"/>
        <path class="cls-1" d="M338.1,567.9h0c24.3,0,47.2-9.5,64.5-26.8,17.3-17.3,26.8-40.2,26.8-64.5,0-50.3-41-91.2-91.3-91.2-24.4,0-47.3,9.5-64.5,26.8-17.3,17.3-26.7,40.2-26.7,64.5,0,50.3,41,91.2,91.3,91.2ZM290.7,429.2c12.7-12.7,29.5-19.7,47.4-19.7,37,0,67.1,30.1,67.1,67.1,0,17.9-7,34.7-19.7,47.4-12.7,12.7-29.5,19.7-47.4,19.7h0c-37,0-67.1-30.1-67.1-67.1,0-17.9,7-34.8,19.7-47.4Z"/>
        <path class="cls-1" d="M453.7,695.8c0-3.3,2.1-80.3-46.4-124.7-4.3-4-10.9-4.2-15.5-.7-.5.4-54.1,40.7-103.9,0-4.5-3.7-11.1-3.6-15.5.2-2,1.7-48.6,43.2-49.8,124.5,0,3.2,1.2,6.3,3.5,8.6,2.3,2.3,5.4,3.6,8.6,3.6h207c6.5,0,11.8-5.2,12.1-11.7ZM247.2,683.4c3.7-46.1,23.7-75.1,34.4-87.5,43.6,28.9,90.3,15.2,116-.3,24.6,27.8,30.3,68,31.6,87.7h-182Z"/>
        <path class="cls-1" d="M677.4,412.1c-17.2,17.3-26.7,40.2-26.7,64.5,0,50.3,41,91.2,91.3,91.2h0c24.3,0,47.2-9.5,64.5-26.8,17.3-17.3,26.8-40.2,26.8-64.5,0-50.3-41-91.2-91.3-91.2-24.4,0-47.3,9.5-64.5,26.8ZM809,476.6c0,17.9-7,34.7-19.7,47.4-12.7,12.7-29.5,19.7-47.4,19.7h0c-37,0-67.1-30.1-67.1-67.1,0-17.9,7-34.8,19.7-47.4,12.7-12.7,29.5-19.7,47.4-19.7,37,0,67.1,30.1,67.1,67.1Z"/>
        <path class="cls-1" d="M811.1,571.1c-4.3-4-10.9-4.2-15.5-.7-.5.4-54.1,40.7-103.9,0-4.6-3.7-11.1-3.6-15.6.2-2,1.7-48.6,43.2-49.8,124.5,0,3.2,1.2,6.3,3.5,8.6,2.3,2.3,5.4,3.6,8.6,3.6h207c6.5,0,11.8-5.2,12.1-11.7.1-3.3,2.1-80.3-46.4-124.7ZM651,683.4c3.7-46.1,23.7-75.1,34.4-87.5,43.6,28.9,90.3,15.2,116-.3,24.5,27.8,30.3,68,31.6,87.7h-182Z"/>
      </g>
    </g>
  </g>
</svg>