<?xml version="1.0" encoding="UTF-8"?>
<svg xmlns="http://www.w3.org/2000/svg" version="1.1" viewBox="0 0 1080 1080">
  <defs>
    <style>
      .cls-1 {
        fill: #fff;
      }
    </style>
  </defs>
  <!-- Generator: Adobe Illustrator 28.7.1, SVG Export Plug-In . SVG Version: 1.2.0 Build 142)  -->
  <g>
    <g id="Camada_1">
      <g>
        <path class="cls-1" d="M364.8,491.1l-164.2,132.4c-3.3,2.7-5.2,6.7-5.2,11v153.6c0,7.8,6.3,14.1,14.1,14.1h164.2c7.8,0,14.1-6.3,14.1-14.1v-286c0-5.4-3.1-10.4-8-12.7-4.9-2.4-10.7-1.7-14.9,1.7ZM359.6,774h-136v-132.8l136-109.7v242.4Z"/>
        <path class="cls-1" d="M482.8,405.3l-42.4,26.5c-4.1,2.6-6.6,7.1-6.6,12v344.3c0,7.8,6.3,14.1,14.1,14.1h164.2c7.8,0,14.1-6.3,14.1-14.1v-243.6c0-3.7-1.4-7.1-3.9-9.8l-121.8-127.1c-4.6-4.8-12-5.7-17.7-2.2ZM598,774h-136v-322.4l26-16.3,110,114.8v223.9Z"/>
        <path class="cls-1" d="M783.9,436.4l-107.6,107.6c-1.9,1.9-2.9,4.4-2.9,7v241.3c0,5.5,4.4,9.9,9.9,9.9h107.6c5.5,0,9.9-4.4,9.9-9.9v-348.9c0-4-2.4-7.6-6.1-9.1-3.7-1.5-7.9-.7-10.8,2.1ZM781,782.4h-87.9v-227.3l87.9-87.9v315.2Z"/>
        <path class="cls-1" d="M876.5,281c-77.6,57.1-155.3,114.2-232.9,171.2-45.2-47.3-90.4-94.6-135.5-141.9-4.7-4.9-14.2-6.7-20.1-2.6-100.3,69.8-200.6,139.5-300.9,209.3-17.4,12.1-.8,40.9,16.7,28.6,96.8-67.3,193.6-134.6,290.3-202,45.3,47.4,90.5,94.8,135.8,142.1,4.6,4.9,14.4,6.8,20.1,2.6,81.1-59.6,162.2-119.2,243.3-178.9,17-12.5.5-41.3-16.7-28.6Z"/>
      </g>
    </g>
  </g>
</svg>