<?xml version="1.0" encoding="UTF-8"?>
<svg xmlns="http://www.w3.org/2000/svg" version="1.1" viewBox="0 0 1080 1080">
  <defs>
    <style>
      .cls-1 {
        fill: #fff;
      }
    </style>
  </defs>
  <!-- Generator: Adobe Illustrator 28.7.1, SVG Export Plug-In . SVG Version: 1.2.0 Build 142)  -->
  <g>
    <g id="Camada_1">
      <g>
        <path class="cls-1" d="M924.3,558.3c0-26-8.9-50.8-25.1-70.8,4.3-9.9,6.6-20.7,6.6-31.6,0-27.2-14.2-52.4-36.8-66.8,1-5.7,1.6-11.4,1.6-17.2,0-42.6-27.8-79.4-67.6-91.6,2.1-17.1-2.8-41.8-13-58.1-20.3-33.5-46.8-40-46.8-40-11.3-4.5-23.3-6.8-35.6-6.8s-20.5,1.6-30.2,4.8c-13.2-26.4-40.2-43.5-70.6-43.5s-53.2,15-67.2,37.5c-13.9-22.5-38.8-37.5-67.2-37.5s-57.4,17-70.6,43.5c-9.7-3.2-19.8-4.8-30.2-4.8-55.8,0-100.9,48.7-95.4,105-39.8,12.2-67.6,49-67.6,91.6s.5,11.5,1.6,17.2c-22.6,14.4-36.8,39.6-36.8,66.8s2.3,21.7,6.6,31.6c-9.9,12.3-17.2,26.5-21.3,41.7,0,0-4.8,17.1-2,43.7,1.3,12.6,4.6,25,10.3,36.3,7.8,15.3,18.9,28.7,32.8,39.1-3,9.4-4.6,19.3-4.6,29.3,0,36.1,20.8,69.4,52.7,85.5-7.7,71.5,52,136,125,132.8,17,29.1,48.7,47.5,82.8,47.5s67.7-20.1,84-49.8c16.3,29.6,47.8,49.8,84,49.8s65.7-18.4,82.8-47.5c23.9,1.1,52.6-6.5,73.4-21.4,25.1-13.2,39.5-45.6,39.5-45.6,9.6-19.5,14.4-42.5,12.1-65.9,31.9-16.1,52.7-49.4,52.7-85.5s-1.5-19.9-4.6-29.3c28.3-21.2,44.9-54.2,44.9-90ZM868.8,626.4c-3.8-5.6-8.5-10.9-13.8-15.8,1.3-5,2-10.1,2-15.4s-5.3-11.8-11.8-11.8-11.8,5.3-11.8,11.8c0,12.5-6.4,23.8-17,30.3-5.6,3.4-7.3,10.7-3.9,16.2,2.2,3.6,6.1,5.7,10.1,5.7s4.2-.6,6.1-1.7c5.8-3.5,10.8-7.9,15-13,10.1,10.2,16.7,28.3,16.6,44.9,0,29.5-18.5,56.5-46,67.2-6.4,2.2-13.8,3.2-22.7,3.2-16.8,0-33-6.1-45.7-17.1-4.9-4.3-12.4-3.8-16.7,1.1-4.3,4.9-3.8,12.4,1.1,16.7,16.9,14.8,38.7,23,61.2,23s11.3-.4,16.5-1.2c.8,14.2-2.5,33.1-10.1,47.9,0,0-10.6,25.6-31.8,36.7-15,10.4-32.5,16.3-50.8,17.1,2-7.8,3.1-15.9,3.1-24.1,0-11.8-2.1-23.3-6.3-34.2-2.3-6.1-9.2-9.1-15.3-6.8-6.1,2.3-9.1,9.2-6.8,15.3,3.2,8.2,4.8,16.9,4.8,25.8,1.3,37-32.4,72.8-71.4,71.7-39.8,0-72.2-32.4-72.2-72.2v-118.5c0-6.5-5.3-11.8-11.8-11.8s-11.8,5.3-11.8,11.8v118.5c0,39.8-32.4,72.2-72.2,72.2-38.5.4-71.8-32-71.4-71.7,0-8.9,1.6-17.5,4.8-25.8,2.3-6.1-.7-12.9-6.8-15.3-6.1-2.4-12.9.7-15.3,6.8-4.2,10.9-6.3,22.4-6.3,34.2s1.1,16.3,3.1,24.1c-52.3-2.4-95.4-47.8-92.6-101.7,5.1.8,10.5,1.2,16.4,1.2,22.5,0,44.3-8.2,61.2-23,4.9-4.3,5.4-11.8,1.1-16.7-4.1-4.6-11-5.3-15.9-1.8-12.3,9-25.5,16.9-40.6,17.7-11.4.5-20.6-.4-28.3-3-27.6-10.7-46.2-37.7-46.2-67.3.2-15.1,4.7-32,16.6-44.9,4.2,5,9.2,9.4,15,13,1.9,1.2,4,1.7,6.1,1.7,4,0,7.9-2,10.1-5.7,3.4-5.6,1.6-12.8-3.9-16.2-10.7-6.5-17-17.8-17-30.3s-5.3-11.8-11.8-11.8-11.8,5.3-11.8,11.8.7,10.5,2,15.4c-5.3,4.9-10,10.2-13.8,15.8-13.4-11.2-23.2-26.2-28.2-43.1,0,0-7.3-21.6-.6-48,3.8-14.1,11.1-27.2,21.2-37.9,16.8-17.7,39.6-27.5,64-27.5s11.8-5.3,11.8-11.8-5.3-11.8-11.8-11.8c-25,0-48.7,8.1-68,23-1.1-4.4-1.7-8.9-1.7-13.4,0-21.3,12.5-41,31.7-50.1,5.3-2.5,8-8.4,6.4-14-1.9-6.5-2.8-13.2-2.8-19.9,0-35,26.5-64.5,59.4-71,15.2-3,37.2-1,52.5,8.5,1.9,1.1,4,1.7,6,1.7,4,0,8-2.1,10.2-5.8,3.3-5.6,1.5-12.9-4.1-16.2-15.8-9.3-36.7-15.2-56.7-13.4-3-40.3,30.7-77.2,72-76.7,23-.2,44.6,10.9,58.7,33,2.3,3.5,6,5.4,9.9,5.4s4.5-.6,6.5-1.9c5.5-3.6,7-10.9,3.4-16.4-7.7-11.7-16.9-21.4-27.1-28.4,9.8-19.4,30.2-31.5,52.8-30.2,29.7,1.8,51.9,28.6,51.9,58.4v100.3c0,6.5,5.3,11.8,11.8,11.8s11.8-5.3,11.8-11.8v-100.3c0-29.8,22.2-56.6,51.9-58.4,22.6-1.4,43,10.7,52.8,30.1-10.2,7-19.5,16.7-27.2,28.4-3.6,5.5-2,12.8,3.4,16.4,2,1.3,4.2,1.9,6.5,1.9,3.9,0,7.6-1.9,9.9-5.4,7.7-11.8,17.1-20.7,27.3-25.8,9.8-4.8,20.4-7.2,31.4-7.2s18.3,1.7,26.8,5.1c0,0,26.1,9.7,35.3,30.2,6.4,11.3,11.1,26.1,9.9,41.4-17.3-1.8-40.6,3.5-56.7,13.4-5.6,3.3-7.4,10.6-4.1,16.2,2.2,3.7,6.1,5.8,10.2,5.8s4.1-.5,6-1.7c15.2-8.6,32.9-12.2,52.6-8.5,36,6.8,59.4,36,59.4,71s-.9,13.4-2.8,19.9c-1.6,5.6,1.1,11.5,6.3,13.9,19.3,9.1,31.8,28.8,31.8,50.1s-.6,9.1-1.7,13.5c-19.4-14.8-43.4-23.1-68.1-23.1s-11.8,5.3-11.8,11.8,5.3,11.8,11.8,11.8c24.5,0,47.3,9.8,64.1,27.5,15.6,16.6,24.2,38.2,24.2,60.9s-11.7,51.3-31.8,68.1Z"/>
        <path class="cls-1" d="M728.6,577.5c6.5,0,11.8-5.3,11.8-11.8v-112.3c0-19.5-15.9-35.5-35.5-35.5h-74.9v-19.7c0-23.9-19.4-43.3-43.3-43.3h-94.5c-23.9,0-43.3,19.4-43.3,43.3v19.7h-74.9c-19.5,0-35.5,15.9-35.5,35.5v204.9c0,19.5,15.9,35.5,35.5,35.5h330.9c19.5,0,35.5-15.9,35.5-35.5v-37.4c0-6.5-5.3-11.8-11.8-11.8s-11.8,5.3-11.8,11.8v37.4c0,6.5-5.3,11.8-11.8,11.8h-153.6v-118.2h39.4v3.9c0,15.2,12.4,27.6,27.6,27.6h15.8c15.2,0,27.6-12.4,27.6-27.6v-3.9h19.7c13.3,0,25.6-4.4,35.5-11.9v25.7c0,6.5,5.3,11.8,11.8,11.8ZM472.6,398.2c0-10.9,8.8-19.7,19.7-19.7h94.5c10.9,0,19.7,8.8,19.7,19.7v19.7h-133.9v-19.7ZM527.7,670h-153.6c-6.5,0-11.8-5.3-11.8-11.8v-118.2c9.9,7.4,22.2,11.9,35.5,11.9h19.7v3.9c0,15.2,12.4,27.6,27.6,27.6h15.8c15.2,0,27.6-12.4,27.6-27.6v-3.9h39.4v118.2ZM441,555.8v-31.5c0-2.2,1.8-3.9,3.9-3.9h15.8c2.2,0,3.9,1.8,3.9,3.9v31.5c0,2.2-1.8,3.9-3.9,3.9h-15.8c-2.2,0-3.9-1.8-3.9-3.9ZM638,555.8c0,2.2-1.8,3.9-3.9,3.9h-15.8c-2.2,0-3.9-1.8-3.9-3.9v-31.5c0-2.2,1.8-3.9,3.9-3.9h15.8c2.2,0,3.9,1.8,3.9,3.9v31.5ZM681.4,528.2h-19.7v-3.9c0-15.2-12.4-27.6-27.6-27.6h-15.8c-15.2,0-27.6,12.4-27.6,27.6v3.9h-102.4v-3.9c0-15.2-12.4-27.6-27.6-27.6h-15.8c-15.2,0-27.6,12.4-27.6,27.6v3.9h-19.7c-19.5,0-35.5-15.9-35.5-35.5v-39.4c0-6.5,5.3-11.8,11.8-11.8h330.9c6.5,0,11.8,5.3,11.8,11.8v39.4c0,19.5-15.9,35.5-35.5,35.5Z"/>
        <path class="cls-1" d="M602.6,607c-6.5,0-11.8,5.3-11.8,11.8s5.3,11.8,11.8,11.8h47.3c6.5,0,11.8-5.3,11.8-11.8s-5.3-11.8-11.8-11.8h-47.3Z"/>
        <path class="cls-1" d="M476.5,607h-47.3c-6.5,0-11.8,5.3-11.8,11.8s5.3,11.8,11.8,11.8h47.3c6.5,0,11.8-5.3,11.8-11.8s-5.3-11.8-11.8-11.8Z"/>
      </g>
    </g>
  </g>
</svg>