<?xml version="1.0" encoding="UTF-8"?>
<svg xmlns="http://www.w3.org/2000/svg" version="1.1" viewBox="0 0 1080 1080">
  <defs>
    <style>
      .cls-1 {
        fill: #fff;
      }
    </style>
  </defs>
  <!-- Generator: Adobe Illustrator 28.7.1, SVG Export Plug-In . SVG Version: 1.2.0 Build 142)  -->
  <g>
    <g id="Camada_1">
      <path class="cls-1" d="M790.7,122.2c-2.9-7.5-11.3-11.2-18.7-8.3-7.5,2.9-11.2,11.3-8.3,18.7l41.9,108.1c.2.4.4.7.6,1.1l-30.8,30.8-37.9-100.8c-2.8-7.5-11.1-11.3-18.6-8.5-7.5,2.8-11.3,11.2-8.5,18.6l41.9,111.5c.2.5.5.9.8,1.4l-73.1,73.1c-61.5-56.6-143.5-91.2-233.4-91.2-190.3,0-345.1,154.8-345.1,345.1s154.8,345.1,345.1,345.1,345.1-154.8,345.1-345.1-34.6-171.9-91.2-233.4l65-65c2.3,3.3,5.9,5.6,10.2,6l136,14.9c.5,0,1.1,0,1.6,0,7.3,0,13.6-5.5,14.4-12.9.9-7.9-4.9-15.1-12.8-16l-127.5-14,37.4-37.4c.6.2,1.2.3,1.9.4l135.9,14.9c.5,0,1.1,0,1.6,0,7.3,0,13.6-5.5,14.4-12.9.9-8-4.9-15.1-12.8-16l-114.9-12.6,69.8-69.8c5.6-5.7,5.6-14.8,0-20.5-5.7-5.6-14.8-5.6-20.5,0l-71.6,71.6-37.7-97.4ZM762.7,622c0,174.3-141.8,316.2-316.1,316.2s-316.1-141.8-316.1-316.2,141.8-316.1,316.1-316.1,156.7,31.4,213,82.7l-68.3,68.3c-38.7-33.9-89.3-54.6-144.6-54.6-121.1,0-219.7,98.5-219.7,219.7s98.5,219.7,219.7,219.7,219.7-98.5,219.7-219.7-20.6-106-54.6-144.6l68.3-68.3c51.3,56.2,82.7,131,82.7,212.9ZM436.4,632.2c2.8,2.8,6.5,4.2,10.2,4.2s7.4-1.4,10.2-4.2l44.6-44.6c6.3,10,10,21.7,10,34.3,0,35.7-29.1,64.8-64.8,64.8s-64.8-29-64.8-64.8,29.1-64.8,64.8-64.8,24.4,3.7,34.3,9.9l-44.6,44.6c-5.7,5.7-5.7,14.8,0,20.5ZM501.7,546.3c-15.5-11.3-34.5-18.1-55.1-18.1-51.7,0-93.7,42-93.7,93.7s42.1,93.7,93.7,93.7,93.7-42,93.7-93.7-6.8-39.7-18.1-55.1l69-69c28.7,33.4,46.1,76.8,46.1,124.1,0,105.2-85.6,190.7-190.7,190.7s-190.7-85.5-190.7-190.7,85.6-190.7,190.7-190.7,90.7,17.4,124.1,46.1l-69,69Z"/>
    </g>
  </g>
</svg>