<?xml version="1.0" encoding="UTF-8"?>
<svg xmlns="http://www.w3.org/2000/svg" version="1.1" viewBox="0 0 600 200">
  <defs>
    <style>
      .cls-1 {
        fill: #fff;
      }
    </style>
  </defs>
  <!-- Generator: Adobe Illustrator 28.6.0, SVG Export Plug-In . SVG Version: 1.2.0 Build 709)  -->
  <g>
    <g id="Camada_1">
      <g>
        <path class="cls-1" d="M121.1,29.3c0,.8.8.8,1.2.4,0,.6.4.6.6,1,.6-.4,1.7.2,2.3-.2.6,1,1.4.8,1.9,1.6-.2.4-.4.4-.8.6,0,.4.6.8.2,1.2-.6.2-.2-.4-.4-.6-.6.8-.8,1-.8,1.9-.4.2-1.2.2-1.7.4,0,.4.6.2.6.6s-1-.6-1.2.2c.2.6.6.4,1,.6-.8,1.6-2.5,1.2-4.1,1.2.4,1,2.5,0,2.5,1.4s-.4-.4-.8.2c.6,1.2.6,1.9,0,3.1-.4-.2-1,0-1.4.2.4.6,1.4.6,1.7,1.2q-.6.8-1.2,1.4c.2.4,1,.2,1,1-.2.2-.8.4-1.2.6.2.4,0,1.2,1,1-.2.4,0,.6,0,1.2-.2.2-.4.2-.8.4-.2.4.8.2.4.6.2.6-.8.2-1,.6,0,.4.2.4.4.4-.4.8-.8,1.7-2.1,1.6-.2.4,0,1.2,0,1.7-.8,0-1.2-.6-1.7,0,0,.4.4.6.8.6,0,.8-.4,1.2-1,1.6.2,1.4,0,3.1.2,4.5-7.4,0-14.7-.2-22.1-.4-.4.2-.2-.4-.4-.6l-1.2,73.1s9.7,3.9,14.5,6c2.3,1,4.8,1.9,6,3.1-.6.2-.8.4-1.4.2-.4.4.4.6,0,1-.4,0-1.2.2-1.4,0-.4.2-.4.8-.6,1-.8.4-1.7.4-2.3,1,0,.6,0,1.2.6,1.4-.6.4-1,1-1.2,1.6-.4,0-.4-.2-.8-.2-.4.4,0,.4,0,.8-.2.2-.6.2-.8.4-.2.4.6.4.2.6-1.4-.2-1.4.2-2.1-.4-.6.8.6.6,1,.8-.2.2,0,.8-.2,1.2-.6-.2-1.6-.2-2.1-.8-.4.6-1.2.6-1,1.7-.6-.2-1,0-1.4.2,0,.6.6.4.8.8.6-.2,1-1,1.7-.6,0,.4-.6.2-.8.6-.2.4.4.4.2.8-.6.4-1.4.6-2.3.6-.4.4.6.6.2,1.6-1-.2-1.7-.2-1.7.6-.4.2-.4-.2-.8-.2-.4.4.2.8.2,1.2-.4.2-1.2,0-1.4.4-.2.4.2.4.2.6-.8.2-1.4,1-2.1.6-.4.4.4.4.4,1-.4.4-1,.4-1.6,0,0,.8-1.2,1-1,1.6-.2,0-.2-.2-.4-.2-.4,0-.2.4-.2.6-.6,0-1,.2-1.2.4-.4.2,0,.4,0,.8-1,.4-1.7,1.2-2.9.6-.2,0-.2.2-.2.6-.4,0-.8-.4-1.2,0,0,.6.8.6.8,1.2-6-1.7-11.8-4.3-17.8-6.6l-17.6-7c-.2-.4-.4-.8-.8-.8.4-.4.8.6,1.4.4.2,0,.4-.6,0-.6.2-.4.6.4,1,.2.2-.6-1.2-.8-1.6-1.2.2-.4.4.2.8.2.4-.6-.6-.8-.6-1.6.6,0,.4.4,1,.2-.4.6-.2,1.7,1,1.7-.2-.8-.2-1.6-.8-2.1.8-.2.2-1,.8-1.2-.2-.6-.8-.8-.2-1.6.4.2.8.4,1,0,0-.6-1-.4-.6-1.2.6.2,1.9,1.2,2.9.8-.6-.8-.6-1.2-1.6-1.6.4-1,1,0,1.6-.2,0-.6-.4-.6-.6-.6.4-.4.8-.8.6-1.2.4,0,1,0,1.4.2.2-1-.2-1.6-.6-2.1.2-.2.6-.2.6-.6.8,0,.6.8,1.2.8.6-.4-.4-.8.4-1.2,0-.4-.6-.4-1-.4.2-.8.6-1.6,1.4-1.9,0-.4-.4-.2-.4-.6,1.4-1.2,3.3-2.1,4.5-3.9.8-1,1.9-1.7,1-2.1.8,0,1.4-1.2,2.7-.8.2-.4,0-.8-.4-.8.8-1.6,2.1-2.9,3.1-3.9.8-.4.8.4,1.7.4,0-1.2-1.6-.8-2.1-1.6-1.6,1.7-2.7,3.7-4.3,5.4-.4,0-.2-.8-.8-.6-1.6,1.2-2.1,3.1-2.9,4.8-.6,0-.6-.6-1-.8l.4-61.1c.8-.2,1.6-.4,2.1,0,.8-.8,1.9-.2,2.1-1.6,1.9.2,3.3-2.5,4.8-2.1.2-.6.2-1.6.6-1.7.4,0,.4.6.6,1,.8-.2.6-.8.6-1.6.6-.4,1.4-.6,1.7-1.4.4,0,.4.4.8.4.2-.2.4-.4.4-.8,1,.6,1.6-.4,1.9-1,.2.2.2.6.6.6.6-.4-.2-.6.2-1,1.2-.6,2.9-1.6,4.1-1.4.6-.2.8-.8,1-1.4,1,.4,1.9-.2,2.5-1.2,1,.2,2.7-1.4,3.9-.2.8-1,2.9-.8,4.1-1.7.6.2.2,1.4.4,1.7.8-.6.6-2.7.4-3.7-.6.8-2.1.6-2.1,1.7-1.6-.2-4.1-.4-5,.8-.2,0-.2-.4-.6-.6-.2.4-.6.6-1,.6,0,.4.2.6.6.4-.2.4-1.6.2-2.1-.2-1.2,1-2.7,2.1-4.5,1.7-.4.4-.4,1.2-.8,1.6-14.2-.2-28.3-.4-42.5-.8,0-.4-.4-.4-.6-.6,0-.2.4-1,.2-1.7.6.4,1.2-.2,1.7-.4,0-.6-.6-.6-1-.4.4-.2.6-1,0-1,1-.2.8-.6,1.4-.8.2-.4,0-.6-.4-.8.2-.2.6-.2.8-.4,0-.4-.4-.2-.8-.2,1.4-1.6,1.2-3.5,2.9-4.5.6,0,.4.4.8.4.6-.6-.4-1-1-1,.4-.2,3.1-4.3,1.7-3.5-.2-1.6,1.7-1,1.6-2.5.8,0,1-.8,1.9-.4-.6-.8.6-1.7,1.6-1.9-.2-.2-.2-.8-.4-1.2.6.2,1,.8,1.4.6,0-.6-.4-.6-.2-1,1,.2,1.6-.4,1-1-.8,0-.8.6-1.6.4,0,.6-.6.6-.6,1-.8.4-1.6.8-2.3.4,0-.6.8-.2,1.2-.4.4-.4-.6-.6-.6-1.2s.8-.6.4-.8c.6-.4,1.2.2,1.6-.6-.2-.4-.4-.8-1.2-.6.6-.6-.4-1.6.4-2.3,1.2,0,2.1,0,2.9-.4-.4-.4-1-.6-1.6-.8.4-.8-.4-1.6.2-2.3.4,0,.4.2.8.2.4-.4-.2-.6-.2-1.2.6-.6,1.7-.6,2.7-.8-.2-.6-1.2-.2-1.4-.6l71.5,1s4.5-.4,6.4.8c-.8.4-2.9-.4-3.7.4-.2-.2-.4-.4-.6-.8-1.2.6-1.4,0-2.5.2M43,57.1c-1.4-.4-1.7-.4-2.7-.4-.2.4.2.4.2.8.6.2.8-.2,1.2-.4.2.4.6.6,1,1,.2-.4.4-.6.4-1M41.8,58c-.4-.4-1.2-.2-1,.6.4.2,1-.2,1-.6M41.2,55.1c0,.4.2.4.4.6.2-.4,1-.2.8-.8-.2-.4-.8,0-1.2.2M42,49.1c.4.2,1.2.6,1.4,0-.4-.4-1.2-.6-1.4,0M43,51.4c.4.2,1.4,0,1.4-.4-.2-.4-1.2-.2-1.4.4M43.2,57.1c.4,0,.4.4,1,.4,0-.2.2-.2.2-.4,0-.4-1.2-.8-1.2,0M44.9,58.8c-.2-.4-.4-.8-1-.8-.4.4.6,1.2,1,.8M45.9,45.8c0-1-1.2-.8-1.4,0,.2.2,1,.2,1.4,0M48.4,43.3c-.2-.2-1.4-.6-1.6,0,.4.4,1.2.6,1.6,0M48.2,44.7c-.4-.2-.8,0-1,.2v.2c.2.2.6.6,1,.2v-.6ZM48.4,36.1c-.2,0-.2-.4-.6-.4,0,.4-.4.4-.4.8.2.4.6,1,1,.6-.4-.4,0-.4,0-1M49.8,31.1c-.4-.2-1-.4-1.2-.2,0,.8,1,.8,1.2.2M50,39c-.2-.2-.4-.2-.8-.4-.2.2-.2.8,0,1,.4,0,.6-.2.8-.6M50.7,36.7c0-.6-.6-.8-1-1.2-.2.2-.2.8-.4,1,.6,0,1,.4,1.4.2M50,29.9c.2,0,.2-.4.4-.4,0-.2-.2-.4-.4-.4-.2.2-.2.6,0,.8M51.3,37.7c-.4-.2-1.2-.8-1.4-.2.4.2,1,.8,1.4.2M53.3,29.5c-.8-.4-2.3-.2-2.7,0,.4.8,2.3.6,2.7,0M51.3,34.6s-.2-.2-.4,0c0,.4-.6.4-.2.8.4,0,.8-.2.6-.8M52.5,31.9c-.6,0-1.4-1-1.7-.2.6.2,1.4,1.2,1.7.2M53.4,151.3c.2.4.4.6.8.6.2-.2-.2-1.2-.8-.6M53.8,149.7c.4.2.6,1,1,.6.2-.6-.8-1.2-1-.6M54.4,30.3q.6,0,1-.2c0-.4-.6-.4-.6-.6.6-.4,1.7,0,1.9-.6-1.6-.8-2.7.4-2.3,1.4M55.8,31.5c-.4-.2-1-.4-1.4-.2,0,.6,1.6,1,1.4.2M54.6,146.2c.4,0,1.2.2,1.2,0,.2-.6-1.2-.6-1.2,0M56.4,151.3c-.2-.2-1-.6-1.4-.2,0,.6.4.6,1,.6,0-.2.4-.2.4-.4M55.4,35.2c.4,0,1.2.2,1.4,0,0-.6-.8-.8-1.4-.6v.6ZM56.9,48.1c-.2-.2-.6-.6-1-.2-.2.8,1,.8,1,.2M57.9,47c-.4-.2-1.7-.4-1.7,0,.4.6,1.4.6,1.7,0M57.9,31.5c-.2-1-2.1-.8-1.6.2.6-.4,1,.2,1.6-.2M56.4,38.1c.2.2.8.2,1,0,.2-.4.2-.6-.2-.8-.2.4-1,.2-.8.8M57.3,146.8c0,.4.6.8,1,.4,0-.4-.8-.8-1-.4M58.9,152.4c0-.8-1.4-.8-1.6-.2.2.2,1,.6,1.6.2M57.5,143.9c.6,0,1.4,1,1.7.4-.4-.4-1.4-1-1.7-.4M57.5,145.1c0,.4.6,1,1,.6,0-.6-.6-1-1-.6M59.8,146.6c0-.8-.6-.8-1-1.2-.4.4.6,1.4,1,1.2M60.8,142.9c0-.6-1.4-.8-1.6-.2.2.4,1,.6,1.6.2M59.5,58v.4c.2.2,1,.4,1.4.2.2-.8-1-1-1.4-.6M60.6,144.3c0-.4-.2-.6-.2-.8-.4,0-.8,0-1,.2l.4.8c.2,0,.6,0,.8-.2M62.6,59.2c-.2.4-1,.2-1,.6.4.4,1.7-.2,1-.6M62.4,95.8c.2-.4.4-.6.4-1.2-.2,0-.2-.2-.4-.2-.2.4-.6,1.2,0,1.4M62.4,29.2c.6,0,.8-.8.4-1,0,.4-.6.2-.6.4-.2.4.2.2.2.6M64.1,56.9c-.2-.4-1.6-.8-1.9-.2.6.2,1.6,1.2,1.9.2M62.6,98.5c-.4.6,0,1.2.6,1.2.2-.4,0-1.2-.6-1.2M62.7,76.1c-.2.4,0,.8,0,1.2.8,0,.8-1.2,0-1.2M65.3,74.7c-.6-1.2-2.7-.8-2.5.2.6,0,.6.4,1.2.4,0-.6.8-.4,1.4-.6M66.2,33.6c-.2-.2-1-.4-1.2-.2-.2.6,1.4.8,1.2.2M68.4,114.2c-.4-.4-1.6,0-1.4-.8.2.2.8.4,1.2.2-.4-.6-1.2-.8-1.6-1.4-.4.4.2.8-.4,1-.2.4.6.4,0,.6q-.2-.2-.4,0c0,.6,0,1.2.8,1.2.4-.2-.4-.6.2-.8.4.2,0,.4.2.8.6,0,1.2-.4,1.4-.8M66.6,109.8c.2.2.8.6,1.2.2.2-.8-1.2-.8-1.2-.2M67,110.4c-.2.6-.4,2.1.6,1.7,0-.2,0-1.4-.2-1.7h-.4ZM68.8,31.5c-.4-.2-1-.6-1.2.2.4,0,.6.4,1,.4,0-.4.4-.2.2-.6M70.7,69.3c-.8,0-1-.6-1.4-.8-.2.6.6,1.4,1.4,1.6.2-.4-.2-.4,0-.8M71.3,70.2c-.2.4,0,1.4.8,1.2.2-.4-.2-1.2-.8-1.2M77.3,67.7c-.2-1-1.6-1-2.5-1.2.2-1-1.7-.6-1.9,0,1.6.4,3.1,1.4,4.5,1.2M74.2,125.3c-.4-.2-1-.6-1.4-.4,0,.8,1.2,1,1.4.4M74.2,45.8c-.2-.2-.6-.4-1-.2-.2.2,0,.6,0,1,.8,0,.8-.4,1-.8M74.8,91c-.4,0-.8-.6-1.2-.4.2.6.4,1,1,1.2,0-.4.4-.2.2-.8M75.9,43.7c-.4.4-1.6,0-1.4.8.4.2,1.2,0,1.6-.2,0-.4.2-.4-.2-.6M75,58c0,.4.4.6,1,.6.4-.4-.6-1.2-1-.6M77.9,55.7c-.4-.2-1.2-.8-1.4,0,.2.4,1.2.6,1.4,0M78.3,127c-.2-.4-1-.6-1.2,0,.2.2,1.2.6,1.2,0M78.6,93.9c.6-.8-.2-1.7-1-1-.2.8.6.8,1,1M80.6,49.7c-.8-.2-1.7-.6-2.5-.2,0,.4.2.6.2.8.8.2,2.3.4,2.3-.6M79.8,127.8c0-.6-1-1-1.6-.6,0,.8,1.2.8,1.6.6M78.6,63.1c.4.2.6.2,1,0,.2-.8-1-.8-1,0M80.8,48.3c0-.8-1.7-.8-1.9-.2.6,0,1.2.6,1.9.2M80.2,56.5c-.4.2-1-.2-1.4,0q.2.6,0,1c.2.2.6.2,1.2.2-.2-.4.2-.8.2-1.2M80.2,55.3c0-.4-.2-.6-.4-.6-.2.2-.2.6,0,.8.2,0,.4,0,.4-.2M79.8,45c.4.4,1.4.2,1.4-.2-.2-.2-.8-.6-1.4-.2-.2.2,0,0,0,.4M81.2,92.3c.2-.8-.8-1-1.4-.6,0,.8,1,.8,1.4.6M81.7,32.3c0-.8-1-.6-1.2-.2.2.4.8.6,1.2.2M81.7,47.4c0-.6-.8-.8-1-.4-.2.4.6.6,1,.4M84.3,129.4c-.4-.2-1-.8-1.6-.4-.2-.6-1.4-1.2-1.7-.4,1.4.2,2.3,1.4,3.3.8M81.6,84.4c.6,0,.6.6,1.2.8.2-.6,0-1.6-.6-1.6-.2.4-.8.2-.6.8M82.3,123.2c-.2.4-.6.2-.6.6.2.2.8.2,1,0,0-.4-.2-.4-.4-.6M82.9,33.6c0,.8,1,.8,1.4.6.2-1-.8-.8-1.4-.6M88.1,131.1c-.4-.6-1.7-1.4-2.3-.8.8.4,1.6,1,2.3.8M88.5,129.2c-.4-.4-.8-.2-1.2,0,.2.8,1,.6,1.2,0M88.7,75.3c0-.4.4-.4.4-.8-.2-.2-.4-.2-.6-.2-.2.2-.2,1,.2,1M89.9,131.5c-.2-.2-1.2-.8-1.4-.2.2.4,1.2.8,1.4.2M89.7,111c0,.6-.6.6-.8,1.4.2.4,1.4.4,1.7,0-.2-.6,0-1.4-1-1.4M89.3,105.7c0,.4.2.4.4.6.6.2.8-.2,1-.4-.4-.2-1-.6-1.4-.2M92.2,132.3c-.4-.2-1.4-.8-1.7,0,.4.2,1.4,1,1.7,0M93,129.8c-.2-.2-.8-.2-1,0,0,.4.2.6.8.6,0-.2.2-.4.2-.6M93.8,151.7c.2.6,1,1,1.4.8-.2-.6-.8-1-1.4-.8M95.1,156.9c0-.8-1.2-.4-1.2,0,.2.2,1,.2,1.2,0M95.7,155.7c-.8-.2-.6-.6-.6-1.2-2.1.2-.6,2.3.6,1.2M94.7,58.6c-.2,0-.2-.2-.6,0,0,.2-.2,1.2.2,1.2.2-.2.4-.6.4-1.2M94.2,142c.4.2.8.8,1.2.4.2-.6-1-.8-1.2-.4M94.2,143.7c.4.2.8.6,1.4.6,0-.2.4-.2.2-.6-.2-.2-.4-.6-.8-.8,0,.6-.8.4-.8.8M95.7,144.7c-.4,0-.8-.4-1.2,0,0,.6.8.4.4,1.2.4.2.6.4.8.2,0-.8-.6-.6,0-1.4M95.9,153c.2.6,1.4,1,1.7.2-.4-.2-1.4-.4-1.7-.2M97.1,54c-.4-.2-1,.2-1,.6.2.2,1.2.2,1-.6M98.2,48.1c0-.8-1.2-.6-1.4,0,.6.2,1,.2,1.4,0M98.2,45.4c-.4-.4-1.2-.2-1,.4.2.6,1,.2,1-.4M98.2,51.4c-.2-.4-1-.4-1,.2.2.4,1,.2,1-.2M97.3,151.3c0,.6.6.8,1,.6-.2-.4-.6-.8-1-.6M97.4,142.4c0,.4,1.2.6,1.4.4,0-.8-1-.8-1.4-.4M99.6,36.5c-.8.4.2.6.4.6-.2.2-.8-.2-.8.6.2.4,1.2.2,1.4,0q-.2-.6,0-1.4c-.8-.2,0-1.4-1.4-1.2,0,.8-.8.8-1,1.4.4.6,1.2-.4,1.4,0M98.6,29.7c.2.4.8.2.8.4-.2,0-.4.2-.4.4.6.4,1.2,0,1.7.4l.4-1.4c-.6-.4-2.1-1.2-2.5.2M100,45.6c-.4,0-.8-.2-1.2-.4-.4.6.6,1,1.2,1.2.2-.4,0-.2,0-.8M98.8,40.6c0,.6,1,1,1.4.6,0-.6-.8-.8-1.4-.6M99.2,152.4c0,.6.6,1.2,1,.8,0-.6-.6-1-1-.8M101.5,41.9c-.6,0-.8-.4-1.4-.2,0,.8,1.2.8,1.4.2M100.7,47.8c.2,0,.2.6.6.4.8-.4-.4-1-.6-.4M101.1,139.3c.4.2.6,1,1.2.6.2-.8-1-1.2-1.2-.6M102.7,144.9c-.2-.2-1.2-.2-1.2.2.2.4,1,.2,1.2-.2M102.9,46.8c0,.4.6.8.8.4.2-.6-.4-.6-.8-.4M103.8,152.2h-.4c-.2,0-.6-.4-.6-1,.4.4,1,.4,1,1M103.3,144.7c1.4-.2,1.7-.8,2.9-.8,0-.4-.2-.8-.4-.8-.6.8-1.6.8-2.5.4-.4.4-.2,1,0,1.2M104.2,147.2c.4-.2.2-.8-.2-1,0,.4-.8.2-.6.8.2,0,.4.4.8.2M104.4,34.6c0-.4-.4-.4-.6-.4-.4.2-.2.6.2.8,0-.2.2-.2.4-.4M106,148.2c-.4-.2-1.2-.8-1.7-.4,0,.4.4.6.6.8.2-.6,1,.4,1.2-.4M105,142c0,.6,1,.8,1.2.6,0-.6-.8-1-1.2-.6M105.2,35.5c.4.2.8.4,1.4.4.4-.6-1.2-1.4-1.4-.4M105.2,140.8c.2.8,1.6.8,1.9.8-.2-.8-1.2-1.2-1.9-.8M105.8,145.8c.2,0,0,.2.4.2.6-.8-.4-1.2-.4-.2M107.1,29.2c0,.2-.4.4,0,.8.6.2.8-1,0-.8M109.5,53.4c-.2-.2-1.4-.4-1.4.2.4.4,1.2.4,1.4-.2M110.2,51.6c.8,0,1.2-.2,1.2-.6l-1.2-.6c-.6.4-.2.6,0,1.2M110.2,30.5c.4.2,1.2.6,1.4.2,0-.6-.2-1-.6-1.2,0,.6-.6.6-.8,1M113.1,53.6c-.2-1-2.1-.8-2.7-.4.8,1,1.7.2,2.7.4M112.8,30.7c.6.2,1.4.6,1.7,0,0-.8-1.6-.6-1.7,0M114.1,50.7c-.2-.2-.8-.2-1,0,0,.6.2.8.6.8.4-.2.4-.4.4-.8M113.3,39c0,.6.8,1,1.4.6,0-.6-.8-1-1.4-.6M113.7,32.3l1.4.2c.2-1-1.4-1-1.4-.2M115.9,57.5c-.2-.2-.8-.2-1,0-.2.4.2.4.2.6-.2.2-.6.2-1,.4.4.4,0,1.4.4,1.7,2.5-.2.4-1.6,1.4-2.7M116.2,37.7c0-.8-1.7-.8-1.9-.4.4.2,1.2.6,1.9.4M114.9,47.8c.2.2,1.2.4,1.2-.2-.2-.6-1.4-.6-1.2.2M116.2,52.8c-.2-1-1.6-.6-1.4.2.4.4.8,0,1.4-.2M116.1,54.9c0-.6-.4-.6-1-.6-.2.2-.2.6,0,.8.4,0,.6-.2,1-.2M115.3,30.3c.8.6,1.6,0,2.1.6.4-1.2-1.4-1.2-2.1-.6M118.2,42.5c.2-.6-1.4-1.7-1.7-.8.6.2,1,.6,1.7.8M117.8,31.1c-.4,0-1,0-1.2-.2-.6.8.4,1.6.4,2.3.6,0,1-.2,1.2-.6,0-.2-.4-.2-.6-.4.4,0,.8,0,.8-.2-.4-.2-.2-.8-.6-1M116.6,35.5c.4.2,1.4.4,1.4,0-.4-.4-1.2-.8-1.4,0M118.6,44.3c0-.4-.4-.4-.4-.8.8-.2,1.4-1,.8-1.7h-.6c-.2.2.2.6,0,1-.6.4-1,1-1.4,1.4.4.2,1.2.6,1.6.2M119.7,45c-.6,0-.4-.6-1.2-.4-.2.6-.8,0-1.2.4.2.6,2.1.8,2.3,0M119.2,39.6c-.6.2-.6-.4-1,0,.4,1,1.6.8,1.6,1.7.4,0,1.2.2,1.2-.2-.2-.4-.4-.6-.8-.8.4,0,1,0,1-.4-.6-.2-.2-1-1-1.2-.2.4-1,.4-1,.8M119.9,35.4c-.2.8-.6.6-1,.2,0,.6-.4,1-.4,1.4.8,0,1-.6,1.6-.6q-.2.2,0,.4c-.4,0-.6,0-.6.4.4.6,1.2-.2,1.7.2.4-.4.6-.8.4-1.7-.4-.2-1-.2-1.7-.2M120.5,31.1c.4.4,1-.2,1-.6-.6-.4-1,.2-1,.6M124.2,33c.2,1,1.9.4,1.9-.4-.2-.4-.8-.2-1-.4,0,.6-.4.6-1,.8M124.8,31.5c0,.2,0,.6.2.6.4,0,1.2-.4.8-.8-.4,0-.8,0-1,.2"/>
        <path class="cls-1" d="M221.1,147.2v.2c-.6-.2-1,.4-1.2,0-.2.4,0,1-.4,1.4-.4.2-.4-.4-.8-.4-.6.2.2.8-.2,1-.8.4-1.2.4-1.9,0-.8.2.4.6,0,.8-.6.4-.8-.6-1.6-.6.6.6,0,1.4-.6,2.1-1.4,0-1.7-.8-2.3-1.6,0-.2.6.2.8.4l1-.8c-.2-.4-.4-1-.4-1.6.6-.2.4.4,1,.2.2,0,.2-.4.4-.6-.2-.6-1-.6-1.2-1-.4.4-.2,1.4-1,1.4,0,.4.6.4.2.8-.8-.2-.8-1.2-1.7-1.2-.4.6.6.8.4,1.6-.4,0-1.2,0-.8.4-.4.4-1-.8-1.6-.2,0,1,2.1,1.9,1.2,2.1,0-.2-1.9-2.1-2.7-1-.2.8.8.6.4,1.2.4.4.4-.4.8-.4.4.8,1.6,1.6,2.7,1.7.4-.6-1-.8-.6-1.4.6,0,.4.2.8.4.4,0,.2-.6.2-1,.6.4,1.4.8,1.6,1.6-.6-.2-.8-.6-1.2-.6-.6,0-.2.4,0,.6,0,.2-.6,0-.4.4.6.4.2.6.6,1.6-.8.4-.8.2-1.4-.2-.2,1.6-1.4,1.4-1.7,2.7-.4,0-.4.2-1,.2.2-.2.2-.4,0-.4,0-.4.6.2.6-.4-.2-.4-.8-.8-1.6-.8.2-.6-.2-.6-.2-1,.2-.2,1,0,1.2-.2-.4-1.4-1.4-.2-1.4-1-1,.2-1.4-.8-1-.8,1.2-.4,1.2.6,1.9.2-.8-.6-1-1.7-2.1-1.9-.4-.2-.6.2-.6.6-1-.2-1.7,0-2.5-1-.6.4.4.6.4,1.2-.4,0-1.2-.4-1.2.2-1.2-.2-1.2-1.7-2.3-2.1-.4,0-.6.6-.4,1-.8-.8-.8.4-1.6-.2-.6,0,0,.8-.4.8s-.4-.2-.8-.2c.2-.6-.4-.8-.8-1-.2,0-.2.2-.4.2,0,.8.8.6,1,1.2-.6.4-1-.8-1.6-.8-.2,1,1.4,1.6,1.9,2.1.6-.2.4-.4,1,0,.8.2.4-.8.8-1,.4.6.4,1.2,1.4,1.7.4,0,.2-.2.6-.2-.4-1-1.4-1.6-1.9-2.1.6-.6,1.2,1.2,2.3.8,0,.2-.4.2-.4.4.2.4.6.6,1.2,1,.4-.2.4-.8.6-1,1.2-.2,2.1-.8,2.1.8-.6,0-.4-.8-1-.8-.8.6,1.4,1.4,1,1.6-.2.2-.2.4-.2.6,1.2.4,1.9,1.4,3.5,1.7,0,.4.2.8.6,1.2-1.4-.2-1.6.8-2.9.8.2,1-.6.6-.6,1.6-1.7.2-3.3.8-4.7,1,0,.6,1.4.2,1,.6-.4.6-1.6.6-1.4,1.7-.6.2-1.2.4-1.7,0,.2,1-.6,1.6-1.6,1.7-.6,0-.6-.4-1-.6-.6.2-.6.6-1,1-2.7-1.4-4.7-3.7-6.8-5.4-6.4-5.8-13-11.4-19.2-17.3.2-.4.8.6,1,.2.2-.8-.4-.8-.4-1.4.6.2.4-.6.8-.8,1.6,0,1.7-2.5,4.1-2.1.4-.4.6-1,.6-1.4,1.2,0,1.6-.8,2.5-1.2-.4-.2-.2-.6-.2-1,2.1-.4,2.7-2.9,4.5-3.1.2-.2,0-.4,0-.8,1,.2,1.7,0,1.6-1.2,1.7-.8,2.3-3.3,5-3.5,0-.6,0-.8.4-1.4.4-.2.4.2.6.4.4-.4.2-1,.2-1.4.8.2,1.4.2,1.4-.8.2,0,.6.2.6.4.6-1,1.9-1,2.3-2.1.6-.2.4.6,1,.4-.4-.6-.8-.8-1-1.4-.8.6-1.9.4-2.1,1.7-1.2.4-2.9.2-3.3,2.1-1.6.6-2.3,2.3-4.3,2.9-1.2,2.7-3.7,3.9-5.6,5.4l.4-20.4c1.2-.4,2.1-1.6,2.9-2.3.2,0,.4.2.6.4,2.1-2.7,4.8-4.8,7.9-6.6,1.4-1.7,2.7-3.5,5-4.3,1.2-2.1,2.7-2.9,4.1-4.3.4-1.9-.8-1.6-2.5-2.1.2,1.2,1.9,0,1.4,1.7-.4,0-.6-.6-.8-.2-.4.8.6.6.2,1.2-1.2.6-2.1,1.4-2.9,2.3-.6,0-1-.6-1.6-.2,0,.4.2.8.6.8-1.6,2.1-4.1,3.9-5.6,5.6-1.6.4-2.9,1.2-3.7,2.5-.4-.2-.8,0-1-.2-.2.2,0,.8.2,1-.6.6-1.6,1.7-2.7,1.6-.2.2,0,.6,0,1-3.1,1.4-5.6,3.1-7.8,5.6-.8,0-1.4.4-2.1,0-.6,1.4,0,2.7-1.6,3.1.2,1.7-3.1,1-5.4.4l-4.7-1-.4,29.9h-1c-1.4,1.9-3.9,2.5-5.4,4.1l-.2-.8c-.8.2-.6,1.6,0,1.7-.6.2-1.2.4-1.2,1.2-1.9.2-2.5,3.5-4.3,3.7-.2.6,0,.8,0,1.2-.4-.2-.8,0-1-.2-.4,1.4-1.9.8-2.7,1.4-.2.6.2.6.2,1.2-.8.2-1.4,1.6-2.1,1-.4.6-.4,1.4-.6,2.1-.4,0-.4-.4-.6-.4-.4.6-.8,1-1.7,1,.4,1.6-.6,2.5-1.7,2.1-.6,1.2-1.9,3.3-3.7,3.3,0-.4.6-1.4-.2-1.7-.8,0-.4,1.2-1.2,1.2,0,.4.4.4.8.6-.6.4-.4.4-.4,1.2-.8,0-.2-1.6-1-1.7-.4.2-.2,1-.2,1.4-.4.2-2.1,0-1.7,1.2-.4-.6-.8-.6-1,0-.2-.4-.2-1.2-.6-1.2-.8,0,.2.8-.6.6l.6-81c.4.6,1.4.2,1.9,0-.4-.6-1.4-1.4-1.7-1.2,0,0,0-16.9.2-25,.4,0,.2.8.8.6.2-.2-.4-.8,0-1.2,1,0,2.3-.8,2.7.2,1.6-1.4,3.9-1.7,6.2-1.9.2-.2.4-.4.4-.6.4.4.6-.4,1,0,1.4-1.7,5.4-1,7-2.5h1.9c-.6-1.4-2.3-1.6-3.5-1.9-8.7-2.5-18.8-4.7-27.7-7.4,0-.4,0-.6-.2-1,.8.4.6-1,.6-1.7.6.2.8,1,1.2,1.6.8-.6,0-1.7-.2-2.3.4.4.6.8,1.2.8.4-.6-.6-.6-.4-1.4.6-.2,1,.4,1.2.2.2-.6-.2-.8-1-.8,0-.4.4-.4.4-.8l.8.4c.6-.2.8-.6,1.4-1-.2-.2-.4-.2-.8-.2.2-.8,1.7,0,2.1-.6.2-.6-.4-.2-.4-.8.4.6,1.6,0,.8-.4.2-.2.8-.4.8-1,1-.2,2.3.8,2.9-.2-.4-.4-1.6-.2-1.9-.2-.4-.6.4-.6.6-1.2.4.2.2.8.6,1,.4-.2.8-1.2,0-1.2.2-.2.8,0,1-.4,0-.2,0-.6-.2-.6,1.2.2,1-1.4,2.1-1.4v-1.2c1.7-1.2,2.7-3.3,5.4-3.5.4-.6,1-1.2,1.4-1.9,1.6.2,2.5-.2,3.9.6.4-.4-.2-1-.6-1,.4-.2.6-.4.8-1,.6.2,1.4,0,1.6.4.2.4-.6.4-.6.6.2.4.6.6,1.4.6.4-.4-1-.6-.4-1,1.2,0,1.9-.4,2.7-1l.4,1.2c.8-.2,1.6-.2,2.1.4.6-1-.8-1-1.6-1.2-.8-2.3,2.5-2.1,3.1-3.9,0,0,15.7,4.1,23.6,6,.6-.2-.2.6.4.8.4.2.8,0,1-.2v-.4l14.5,3.9c-.2.4-.8,1.4-.2,1.7.6,0,.4-1.4,1-.8.2-.2,0-.6-.2-.8.4-.2,1.2.4,1.9.4l-.8.4v1.4c.6.2,1.9-.8,1.2-1.6l20.4,4.8s6.4,1.4,7.6,2.7c-.6-.4-1.4,0-1.7.4.2.6.8.6,1,1-.4,1.6-1.7,2.3-1.9,4.1-.4.2-.4,0-1,0-.2.4.4.6.4,1.2-.2-.2-.4-.2-.6-.2-.4.4.4.6,0,1.2-1,.6-1.6-.8-2.3-.4.2.6.8.8,1.2,1.2-.2,1-1.7,2.1-1.4.4-.6-.2-1.6-.2-1.9-.6-.4.4,0,.8.2,1.4.6,0,.6-.2.8.2.2.4-.6,0-.6.4,0,.6.4.8.6,1.4-1.6,1.7-2.1,3.9-3.9,4.8-.4.4,0,.4,0,.8-2.3.6-2.7,3.9-5.2,3.7-1,2.7-4.1,3.7-5,6.6,1.7,0,1.9-2.1,3.1-3.1,1-1.2,2.7-1.7,3.1-3.3.2,0,.4,0,.6.2,2.1-1.9,4.1-4.3,6.2-6.2l.4,77c-3.7-2.3-6.4-5.2-9.7-7.8,2.9,3.1,5.6,4.7,8.5,7.8,1,1,1.7,2.5,2.5,3.1h.6c1.2.4,2.9,2.1,4.3,3.5,1.7,1.6,3.1,2.9,4.3,4.5M122.1,48.3v.4c1.2.6,1.2-1,0-.4M124.4,47.6c0-.6-.8-.8-.8-1.4-.4.2-1.2,0-1.2.6.2.2.8-.2,1,.2l-.2.4c.4.2.8.6,1.2.2M122.6,48c.2.2.8.6,1.2.4.2-.8-1-1-1.2-.4M122.8,44.7c.4.2,1,.8,1.4.6.2-.8-1-1.2-1.4-.6M126.3,51.6c-.4,0-.6-.6-1-.2-.2.2.2,1,.8.8,0-.2.4-.2.2-.6M126.9,174.1c-.2,0-.6,0-.6-.4.4.2.6.2.8-.4.6.2-.2.6-.2.8M129.2,87.5c0,.4.2.6.4.6.6-.2.2-.8,0-1.2-.6-.2-.8.2-1.4.4,0-.4-.2-.6-.6-.8-.4.4.2.8.2,1.4.6,0,1.2,0,1.4-.4M129.8,50.5c.2.2.8.2.8-.2-.6-.4-1-1-1.7-1.4,0,.4-.8.2-1,.4.6.4,1,1.2,1.4,1.7-.2,0-.4.2-.4.6.4.2.8-.2,1-.2v-1ZM127.9,69.7c.4.2.6.2.8,0,0-.4.2-.8-.2-.8-.2.2-.6.2-.6.8M128.3,121.2q.2.2.6,0c0,.4.2.6.6.6s.6-.8.2-1-.4.2-.6.2c0-.4,0-.6-.4-.6-.2.4-.6.4-.4.8M129.2,160.8c0-.2.2-.4.4-.4,0-.2-.2-.2-.2-.6-.2-.4-.6.2-.6,0-.2-.6.2-.6.4-1.2-.4,0-1-.4-1,0,.6.6,0,.6,0,1.4.4.2.4.8,1,.8M129,70.8c.4,0,.4-.2.6-.4,0,.6.6.6.6,1-.2,0-.4-.2-.6-.2-1,1.4-1.7,3.9,0,5.2-.4.4-.6-.6-1,0,.2.4.2.8.6,1-.2-.4.4-.2.6-.2,0,.2.2.4.2.6-.4.4-1.2-.2-1.4.2,0,.6,0,1.6.6,1.9.2-.6.4-1,1-.8,0-.8.8-.6,1-1-.4-.4-.6-1.7-.4-2.3.4,0,.4.2.6.2.2-.4-.2-1,.4-1.2,0,1,.4,1.2.8,1.6.2-.4,0-1.4-.4-1.7.2-.2.6-.4.6-.8-.4-.4-.4,0-.8,0-.4-1.2-.8-1-1.6-1.6.6.2,1-.2,1.4,0-.2.6,0,.8.2,1.2.4,0,.6-.2.8-.2,0-1-1.2-2.3-1.6-1.6,0-.6-.2-.8,0-1.4-.2-.2-.6.2-.6,0,0-.6-.2-1.6-1-1.9.2.8-1.2,1.4-.6,2.3M132.1,51.4c-.4-.2-.4-.6-.6-1,.2.2.4,0,.6,0,0-.6-.6-.6-.4-1,.4-.4.2-.2.8,0,.4-.6-.2-1.2.2-1.6-.8-.8-3.3-1.2-4.1-.2.8,0,1.9.2,2.5.8-.2.6-.6.4-1,.6,0,.6.8.4.8.6.2.8.4.8,0,1.6-.2-.4-.4-.6-.8-.6-.4.6.4.6,0,1.4,0,.2.2.2.2.4.6-.4,1.4-.4,1.7-1M128.7,97.2c.4,0,.4.4.8.4.4-.4-.6-1.2-.8-.4M128.8,45.6c.4.2,1.2,0,1.4-.4-.4-.2-1.4-.2-1.4.4M131.8,85.9c.6-.8-.8-1.4-1-2.1-.4.2-.2.6-.6.8.2-.4-.4-.2-.6-.4,1,0,.8-1,1-1.4-.4-.2-.8-.2-1-.8-.4,0-.6.2-.8.4.6.8.4,1.7.2,2.5.2.2.6.2.6.6s-.6.8-.4,1.2c1,0,.8-1,1.4-.6.2-.2-.2-1,.2-1.2.2.4.4,1,1,1M129,46.4c0,.4.6.8.8.6.2-.6-.4-1-.8-.6M129.6,73.7c.2.8,0,1.4-.6,1.2,0-.4.4-1,0-1.2,0-.4.2.2.6,0M130.2,166.4c-.6,0-.8-.8-1.2-.6,0,.6.8,1.4,1.2.6M130.2,79.9c.4.2.4.4.8.4,0-.2.2-.4.2-.6-.4-.4-.8-.2-1.4-.2,0,.4-.4.4-.6.8.6.2.4,1,1,1,0-.4.2-.8,0-1.4M129.6,157.7c-.2.2-.4,1.4.4,1,0-.2.2-.6,0-1h-.4ZM130.4,73.5l.4,1.4c-1,.2-.6-1.2-.4-1.4M131.2,94.5c0-.4-.4-.8-.8-.8-.2.2-.2.4-.2.8.4.2.6.2,1,0M131.6,158.4c-.4-.2-1-.4-1.4-.2.4.4.2,1.4,1,1.6,0-.6-.2-1,.4-1.4M130.6,95.8c-.2.2-.4,1.6.2,1.4.6-.2.2-1.4-.2-1.4M131.2,43.1c.2.4,1,.6,1-.2-.2-.4-1-.2-1,.2M131.6,46c-.4.4-.2,1.2.4,1,.4-.4,0-1-.4-1M132.3,45.4c.2-.6.4-.8.8-.8-.2-1.7-2.9.2-.8.8M132.3,77.4c.4-.4,0-1.2-.6-1.2-.2.4,0,1.2.6,1.2M132.7,133.2c-.2-.2-1.2,0-1,.6.4.4,1.2.2,1-.6M131.8,99.9c.2.4,1.2.8,1.4.2-.4-.2-1-1-1.4-.2M134.9,78.8c-.4-.4-1.2-.4-1.4-1l.8-.4c0-.6-1.2-.6-1.6-.2.4.6.6,1,.4,1.6-.2-.4-.6-.6-1.2-.8-.2.6,1,1.6,1.6,1,.4.2.6.6,1.2.6,0-.2.2-.4.2-.8M132.7,51.2c-.4,0-.6.2-.6.6.8.4,1.4,1,2.3,1.2.2-.8-1.6-.8-1.7-1.7M132.5,46c-.2.6,1.2,1.2,1.7,1,.2-1-1-1.4-1.7-1M132.7,115c-.4.4,0,1,.4,1.2.2-.4.2-1.2-.4-1.2M132.7,74.7c-.4.4,1,1.6,1.4.8-.6-.2-.6-.8-1.4-.8M136.6,49.1c-.6-.8-2.5-1-3.9-.8.2.8,1.4.6,1.7,1.2.2-.2,0-.6.2-.6.4.6,1.6.6,1.9.2M134.9,81.5c0-.8-1-1-.6-1.6-.4-.2-.6-.2-1,0-.2,1.2.8,1.4,1,1.9.4,0,.4-.2.6-.4M137.2,100.5c.2-.6-.8-.8-1-.2.2.2.6.6,1,.2M136.4,74.7c.2,1.4,2.1,1,2.1-.2s-.8-.4-1-.6c0,.6-.8.4-1.2.8M139.1,111.9c-.2-.4-.8-1.4-1.6-.8-.2.4.6.6.2.8,0-.2-.2-.4-.6-.4,0,.6-.2,1.4-.4,2.1.4.2.8.4,1.4.2.4-.4-.4-.2-.4-.8.6,0,.2-.6.4-.8.6.2,1,0,1-.4M138.1,159.8c-.2.2-.6.8-.2,1.2.6.2.6-1.2.2-1.2M141.3,109.8c0-.8-.2-1.9-1.4-2.1-1,.6-1.2,1.9-1.7,2.9.2.2.8.6,1.2.4,0-.4,0-.6-.2-.8.6.2.4-.4.6-.4.4.2.8.4,1.2.4.4-.4-.2-.8.4-.4M140.3,164.3c-.2-.2-1-.6-1.4-.2v.4c.4.2,1.2.6,1.4-.2M141.4,40.6c-.2-1-1.4-1-2.1-.6.4.8,1.4,1,2.1.6M140.7,31.7c.2,0,0,.2.2.4.6,0,1-.2,1-.4-.4-.2-1.2-.6-1.2,0M142,108.4c.6-.8-.8-1.6-1.2-1,.6,0,.6.8,1.2,1M142.2,47.4c.2-.6-.8-.8-1-.4-.2.6.6.6,1,.4M144.9,51.8c-.2-.8-2.3-1-3.7-.8,0,.8,1,.8,1.4.4-.2.4.4.2.6.6.4,0,.6-.4,1.2-.4.2.4,0,.6.2,1,.6-.2.8.2,1.2.4.6-.6,0-1.7-.8-1.2M143.6,105.9c.8-.2,1-1,1.6-1-.4-.2-.2-.8-.4-1-1.2,0-1.4,1.6-2.3,1.4.4.6-.8.6-.8,1.4.4.2.4.8,1,1,0-1,1-1,1-1.7M141.8,160.2v.4c.2.2,1,.4,1.2.2.2-.6-.8-.8-1.2-.6M143.6,48.1c-.2,0-.6-.6-1.2-.2-.2.6,1.4.8,1.2.2M142.4,50.1c0,.8,1.4.6,1.7.6,0-.8-1.4-.6-1.7-.6M143.4,47.2c1,.8,1.6-.6.2-.8l-.2.8ZM146.7,79c-.2-1-1.2-.4-1.7-.4.2.6,0,1.4.8,1.4.2-.2,0-.6,0-1,.2,0,.6.4,1,0M146.3,102.6c-.6-.4-.8.8-1.4,1,.6.4,1.2-.4,1.4-1M145.1,124.9v1.2c1,.2.8-1.4,0-1.2M145.5,34.4c.4-.2,1.7.4,2.1-.2-.6,0-.8-.6-1.6-.6s-.6.4-.6.8M146.1,35.9c.6-.2.8,0,1.2-.2.2-.6-1-.6-1.4-.4-.2.4.2.2.2.6M147.6,55.9c.2-.6-1-.8-1-.4.2.2.8.6,1,.4M147.1,101.8c1.6-.4,2.1-1.9,3.5-2.5,0-.8.8-1.4.6-1.9-1.2.6-1.7,1.6-2.1,2.5-.8,0-.8.4-1,.6-.2-.2-.2-.4-.4-.4-.2.6-1.2,1-.6,1.7M149.6,123.4c.6-1.7-1-1.9-1.9-1,0,.4,0,.8.2,1,.6-.6,1-.4,1.7,0M148.2,27.6l.8.4c0-.4.2-.4.2-.8-.4,0-.6-.4-1-.4,0,.2-.2.4,0,.8M148.2,28.2c0,.6,1.2,1,1.4.4-.2-.2-1.2-1-1.4-.4M150,153.4c-.2.2-.4.6-.4,1l.8.2c.4-.4.2-1.2-.4-1.2M149.8,124.9c0,.4.2.4.4.8,1,0,.4-1.7-.4-.8M150.6,53.4c.6,0,.6-.2.8-.4-.2-.6-.8-1-1.2-1.2-.8.6.6.8.4,1.6M150,56.7c.4.2.6.4,1,.4s.4-.2.6-.6c-.6-.2-1.4-.4-1.6.2M152.7,56.1c-.6-.4-1.4-1.9-2.3-1l.8.4c-.4,0-.6.2-.6.4.4.2,1.6,1,2.1.2M151.7,54.4c0-.8-1.2-1-1.2-.2.2,0,.8.4,1.2.2M150.7,51.4c0,.6,1.4,1.6,1.6.6-.4-.4-1.2-.8-1.6-.6M151.7,122.8c-.2-.2-.6-.4-1,0,.2.4,0,1,.4,1,.2-.4.8-.2.6-1M151.3,29c0,.8,1.4,1,1.4.2-.4-.2-1-.6-1.4-.2M151.3,51.2c.4,0,.4.4.8.4.4-.4.2-1.2-.2-1.2-.2.2-.6.4-.6.8M152.7,146.6c-.4-.2-.4-.8-1-.6-.2.2-.2.8,0,1,.4,0,.8-.2,1-.4M153.3,95.1c-.8-.2-1.2.4-1.6.6.4.6-.4.8,0,1.2,1-.2,1-1.2,1.6-1.7M152.5,122.2c-.6.4-.2,1.4.2,1.6.2-.6.4-1.4-.2-1.6M155.8,90.4c-1.6.2-1.6,3.1-2.9,4.1,0,.2.2.2.2.4,1.6-1.2,1.9-2.5,2.7-4.5M155,149.9c-.4-.2-.8-.2-1-.4l-.6,1c.2.2.8.2,1.2.2l.4-.8ZM154,123.7c.2-.2.4,0,.6-.2-.2-.6,0-1.2-.6-1.2-.2.6-.6,1.4,0,1.4M155.4,145.6c-.2-.2-1-.4-1,.2.2,0,0,.4.6.4.2-.2.4-.2.4-.6M156,30.1c.4-.6.4-1.7-.8-1.7-.2.6,0,1.6.8,1.7M156.8,31.3c0-.6-.8-.6-1.2-.4,0,.6,1,.6,1.2.4M156.2,30.1c1.2.2,1.9.6,2.5.8-.4-1.2-1.6-1.6-2.5-.8M156.6,124.9c.4.2,1,.2,1.4.8,1.2-1.7-1.2-3.9-1.4-.8M159.1,86.3c-.2,0-.2-.2-.4-.2-.6,1.2-1.6,1.7-1.9,3.1.4.2,1-.2,1.4-.4v-.8q.2.2.6,0c-.2-1,.6-.8.4-1.7M159.7,41.4c-.2-.6-1.2-1-1.6-.8,0,.6.8,1.2,1.6.8M189.5,72.2c-.6-1-.6-1.7-.2-2.5-9.5-2.7-29.3-7.6-29.3-7.6l-.6,23.3,18.8,4.5v-14.9c1-.4,3.3-.2,3.9-.2.4-.2-.4-.6.2-.8,1,.6.6-.8,1.9-.2,1-1.4,2.3-2.3,3.7-2.3,0,.6.2.8.4,1.2.6-.6.6-.2,1.2-.4M161,105.3c-.2-.2-1-.8-1.2-.2.4.2.2.4,0,.6.4,0,.4.6,1,.6.2-.6-.4-.8.2-1M160.6,59.8c0-.2.4-.2.6-.4-.2-.6-.6-1-1.2-1-.2.4.2,1,.6,1.4M161.6,97c-.4-.6-1.2.4-1,.8.6-.2,1-.4,1-.8M162.4,42.1c.4.2.4.8.8,1.2.6,0,.8-.2,1-.8-.8,0-.6-.4-.6-.8-.4.2-1.2,0-1.2.4M163.5,106.9c0-.6-.4-1-1-.6-.2.4.6,1,1,.6M165.1,100.3c0-.6-1-1-1.6-.8.2.6,1.2,1,1.6.8M163.7,59.4c.2.6.8.8,1.2.4,0-.6-.8-.8-1.2-.4M167,101.6c0-.6-1-1-1.4-.4.4,0,1,.6,1.4.4M168.2,88.7c0-.6-1.4-1-1.4-.2.2.2,1,.6,1.4.2M169.2,97.8c0-.6-1-.8-1.2-.4.2.4.8.8,1.2.4M168.2,32.6c.4.4,1.4.4,1.4-.4-.2-.4-.6-.4-1-.6-.2.4-.4.4-.4,1M171.1,109.4c-.2,0-1.4-.6-1.6,0,.2.2.6.4,1,.4s.6-.2.6-.4M171.1,142.7c.2.2.8.6,1,.4.4-.8-1-.8-1-.4M173,98.9c-.2-.6-1.4-.4-1.6.2.4.2,1.4.4,1.6-.2M172.8,144.7c0-.8-1-1.6-1.4-1,.6.2.8,1.4,1.4,1M172.7,34.2c.4,0,.8-.2,1-.6-.6,0-.6-.6-1.2-.6-.2.2,0,.8.2,1.2M173.2,32.1h.2-.2ZM173.8,140.2c0,.6.8,1.2,1.4.8,0-.6-1-1-1.4-.8M174,145.1c.4.2,1.4.2,1.4-.2-.2-.2-1-.6-1.4-.2v.4ZM176.1,146.2c-.8,0-.8-1-1.6-1-.4.4,0,.4,0,1,.6,0,1.2,1,1.6,0M174.8,138.5c.2.6,1,1.2,1.4,1-.2-.6-.8-1.4-1.4-1M178.1,145.3c0-.4-1.2-2.1-1.9-1.6.8.4,1.2,1.2,1.9,1.6M177.1,60.7c.4.4,1,.4,1,1.2.6-.2,1,0,1.7,0,.2-.4-.6-1-.8-1.4-.4-.2-.4.2-.6.2-.2-.2-.4-.6-.4-1-.8-.2-1.2.2-1,1M183.5,150.5c-.8-.4-1.9-1.7-3.1-1.2,0-.6-.6-.8-.8-1,0,.8.4,1.2,1,1.4-.2.2,0,.6-.2.6-.6.2-1.2-.6-1.4,0,.4.6,1.2.8,1.9,1,.2-.4,0-.6.2-1-.2,0-.2-.2-.4-.4.6.4,1.4.6,1.7,1.4.6-.2,1-.2,1-.8M179.4,62.5v.4c.2.2,1.2.8,1.4.2-.4-.4-1-1-1.4-.6M183.5,90.6c-.6,0-1.9-.6-3.3-.6.8.6,2.3,1.2,3.3.6M181,75.7c.4.2,1,1,1.6.8-.2-.8-.8-1.2-1.6-1.6,0,.2-.2.4,0,.8M182,61.9l.2-.2c0-1.6-1.6.2-.2.2M183.3,152.8c-.2-.6-1.2-1.9-1.6-.8.6,0,1,1.6,1.6.8M189.7,149.9c.4.2.8.4,1.4.4-.4-1.2-2.1-1.6-3.5-1.2-.4.2-.2.8-.4,1-.4-.8-1.6-1.2-2.1-1-.4.6.8.6.4,1-.2-.2-.6-.2-1-.4-.4.4.2.6,0,.8-.4-.4-1.2-1.4-1.6-.8,1.2.8,1.9,1.7,2.5,3.1.6-.6,1.2.4,1.4-.2-.8-.4-1.6-1.4-1.7-1.9.6.8,1.6,1.7,2.3,1.7.2-.6-.6-.4-.4-1,.6.2,1,.8,1.7.8.4-.2-.2-.6.2-.6l1,.6c.4-.8-1.4-1.4-1.2-1.9,1.2.2,1.4,1.4,2.3,1.6.4-.8-1.4-1.4-1.4-1.9M184.5,155.9c0-.6-.4-.6-.6-.8-.4.4.2,1.2.6.8M185.1,91.2c-.2-.4-.4-.6-.8-.8-.6.4.2,1.2.8.8M184.5,39c.4.4,1,.8,1.6.6,0-.8-1.2-1.2-1.6-.6M184.7,66.6c.6.2,1.7.8,1.9,0-.6-.2-1.7-1.2-1.9,0M186,72.6c0,.4-.6.2-.8.4,0,.8.4,1.2.8,1.2.2-.4.6-1.4,0-1.6M186.6,155.9c-.2.2-.2,1,.4.8.4-.2.2-.8-.4-.8M187.4,157.5c.2.6.6.8,1.2,1,.2-.4-.8-1.2-1.2-1M188,153.2c.4-.4.2-1.4-.4-1.2,0,.4-.4,1.2.4,1.2M187.8,150.3l-.2-.6c1-.6.8,1.4.2.6M190.5,156.5c0-.4-.2-.6-.6-.8l-.4,1c.4.2.8-.2,1-.2M191.5,40.6c-.2-.6-.6-1-1.2-1,0,.2-.4.8-.2,1,.4,0,1.2.2,1.4,0M191.8,151.7c1-.8,1.6,1.2,2.3.6,0-.8-2.1-2.1-3.3-1.6.4.2.6.8,1,1M193.2,43.1c0-.6-.4-.8-1-1,0,.4-.4.2-.2.6.2.2.8.6,1.2.4M192.2,156.3c.2.6.6.8,1.2,1,.4-.6-.8-1.4-1.2-1M193.2,160c.2-.2.4-.2.4-.6-.4,0-.8-.6-1.2-.2.2.4.4.8.8.8M193.4,164.1c0,.6.4,1,1,1.2.2-.6-.6-1.4-1-1.2M195.7,123.6c0-.6-1-1.4-1.2-.8.2.2.6,1.2,1.2.8M194.9,157.7c.6.2.8,0,.8-.4-.2-.2-.6-.2-.8,0v.4ZM196.5,156.3c.2-.8-.6-1.6-1-1.9.4,0,.8-.2,1-.6-.2-.4-.8-.2-1-.4-.6.8-.4,2.5,1,2.9M196.5,158.4c-.4-.2-.8-.6-1-.2-.2.4.8.8,1,.2M197.9,125.5c-.2-.2-1.4-1.7-1.9-1.2l1.9,1.2ZM197.1,39c.2,1,1.6,1.4,1.9.6-.4-.4-1.4-.8-1.9-.6M197.3,158.2c.4.2.8.6,1.2.2,0-.6-1.2-.8-1.2-.2M199.6,154.4c0-.8-.6-1-1.2-1.2-.2.6.8,1.4,1.2,1.2M199.6,162.5c0-.8-.8-.8-1-.2.2.2.8.4,1,.2M200.6,43.3c-.2-.4-.4-.8-1.2-.8-.2.4.6,1.2,1.2.8M199.4,160.6c.2,0,.4.6.8.2.2-.4-.8-.8-.8-.2M199.8,40c.2,1,2.3,1.4,2.7,1.2-.6-.8-1.6-1.6-2.7-1.2M201.1,158.6c-.2-.6-.6-1-1.2-1.4-.4.8.8,1.6,1.2,1.4M201.1,119.5c-.2-.2-.6,0-.8-.2-.2.2-.4.6-.2,1,.6-.2.8-.4,1-.8M201.1,121.4c.4-.4,0-1.2-.4-1.2-.4.4-.2,1.2.4,1.2M202.5,151.3c-.8,0-1-1-1.6-.6,0,.6,1.2,1.6,1.6.6M201.7,93.9c0,1.2,0,2.3,1,2.5.4-.6-.4-1.7.2-2.1-.6-.2-.2-.6-.8-.6,0,.2-.2.2-.4.2M203.9,118.1c0-.4-.2-1,.2-1.4-.4,0-.6-.2-1.2-.2,0,.4-.2.8-.4,1,.4.6.8,1.2,1.6,1.4.2,0,.4-.2.4-.6-.2-.4-.6,0-.6-.2M204.1,96.2c0-1,.2-2.3-.8-2.5-.2.8,0,2.9.8,2.5M203.3,41.9c.4.2.8,0,1.2-.2,0-.8-1.4-.8-1.2.2M203.5,43.5c.2.4,1,.6,1.6.2.4.4,0,.4,0,.6.4.4,2.1,1.6,2.5.4-.2-.4-.4,0-.6,0,0-.4-.6-.4-.4-1-1-.4-2.3-.8-3.1-.2M204.6,94.9c0-.2.4-.2.4-.6-.2,0-.2-.2-.6-.2-.2.2-.2.8.2.8M205,150.1c0,.2-.2.2-.4.2.2.6.4.8.8,1,.4-.4.2-1.2-.4-1.2M204.6,155.9c0,.8,1,1.6,2.3,1.6,0-.8-1.6-1-2.3-1.6M205.4,153.6c.6,0,1.2.6,1.4,1.2-.6.4-1.2-.4-1.7-.4,0-.4.6-.2.4-.8M205.2,47c.6,0,1.4.4,1.7.2.2-.8-1.6-1-1.7-.2M205.2,94.7c0,.6.6,1.2.8,1,.2-.6-.4-1.2-.8-1M206,129c-.2.2-.6.2-.6.4,0,.4.2.8.6,1,.2-.4.4-1.4,0-1.4M207.3,45.6c-.4-.4-1.2-.2-1,.6.2.2.4.2.6.2l.4-.8ZM207.7,107.7c0-.4-.2-1.6-.8-1.7-.4.6.2,1.6.8,1.7M207.9,128.2c.2,0,.2.6.8.4,0-.4.4-.8.2-1-.4.2-.8.2-1,.6M208.7,109.6c.4-.4,0-1-.6-1-.4.4,0,.8.6,1M208.1,107.5c.2.2.2.4.8.4,0-.6.2-.6.6-1-.6-.2-.6-.8-1-1-.4.6,0,1-.4,1.6M210.1,127.8l-1-.6c-.2.6.2,1.4.6,1.6.2-.2.6-.4.4-1M209.5,131.3c-.2.2-.6.8-.2,1,.8.2,1-1,.2-1M210.3,133.8c-.4,0-.2-.4-.6-.4-.4.4-.2,1,.2,1.4.2-.4.4-.6.4-1M209.7,42.9c0,.6.8.4,1,.8.6,0,.8-.6,1.4-.6.2.6,1,.6,1.7.8-.2-1.2-2.5-1.4-4.1-1M210.3,153.6c0,.6.2,1,.8,1,.4-.4-.4-1.4-.8-1M211.6,146.2c.8-.6.8-.4,1.4-.8-.6-.6-1.4-.4-1.9,0,.4,1.4.2,2.7,2.1,2.3.2-1.2-1-1-1.6-1.6M214.7,144.7c-.4-.8-1-1.7-1.7-1,.4.4,1,1.2,1.7,1M214.9,43.7c-.4.4-1.7,0-1.7,1,.8,0,1.4-.4,2.1.2.2-.4,0-1-.4-1.2M215.5,146.4c-.8-.2-.8-1.2-1.6-1.4,0,.6.2,2.1,1.2,2.1.2-.2,0-.4.4-.8M215.7,145.5c0-.4-1-1-1-.4.2.2.6.8,1,.4M217,145.3c0-.6-1-1.6-2.1-1.7,0,.8,1.4,1.4,2.1,1.7M215.9,146.2l.2.4c1.4-.4,0-1.7-.2-.4M218.2,144.7c-.4.6.2,1.2.8,1.2.2-.6-.4-1-.8-1.2"/>
        <path class="cls-1" d="M277.5,165c-.4-.2-.8-.6-1.4-.6-.4.2.4.6.6.6-.6.8-1.2-.6-1.7.2l-41.1-21.7-2.5-1.6c0-.4,1-.2.2-.8.4-.2,1.4.8,1.9.4.2-.6-.8-.4-1-.6,0-.4,0-.8.4-1-.4-.4-.8-.8-1.4-.8.2-.2,1,0,1.2-.4-.2-.4-.4-.4-.8-.6,1.2,0,1.7,0,2.5-.6-.2-.4-.6-.6-1.2-.6.8-1,4.3-2.5,1.4-3.5.2-.6.8,0,1,.2.4-.4.2-1.2-.4-1-.2-.8,1-.2,1.6,0,0-.8-.4-1.6-.8-1.7.2-.6.8-.6,1.4-.6,0-.8.4-1.7,1.6-1.7,0-.4.2-.6.2-1.2.8.4,1.6-1.4,2.3-2.1l1.9-1.7c0-.4-.4-.4-.2-.8,1.2-.6,1-1.6,2.3-1.9.8-2.5,2.1-4.3,3.9-6l1,.6c.2-.8-1-1-1.4-1.4-.6,1.4-2.3,1.6-2.3,3.5-.6,0-.6.2-.8.4.2.4-.2.8-.2,1.4-2.3,1.4-3.1,4.3-5.4,5.6,0,.4,0,.8-.2,1-.6.2-1-.2-1.6,0l-6-70-15.1-7.8c.4-.4.8,0,1.2,0,.4-.4,0-.8-.6-.6.4-.4.4-.6.6-1,.4-.2.8.2,1,.4.4,0,.4-.4.6-.6.8,0,1,.4,1.4.8,1.4-1-1-1.7-2.3-1.2.2-.6,1-.4,1-1,.6,0,1,.4,1.4,0,.4-.8-.4-.4-.6-1,.2-.6,1.2-.6,1.4-1,1.4.2,1.7-.4,2.5,0,0-.4-.6-.8-.8-.4-.2-.2.4-1.2.8-.8.2-.2-.2-.6.2-1,.4,0,.8,0,1.2.2.6-.4-.6-.6-.2-.8.8-.2,1.2-.4,1.6-.4,0-.4-.4-.6-.6-.8,1.6-.8,2.1-2.7,4.5-2.9-.2-.6,1-.8,1-1.2.2-.4,1.6-.4,2.1-.2.2-.6-.4-.6,0-1.2.4,0,.4.2.8,0,0,0,.4-.6,0-.6.6-.4,1.6-.4,1.7-1.2,1,.2,2.5.2,2.5-1,1.9-.2,3.1-1.2,3.7-2.3.2.2.6.2.8,0-.4-.8.2-1.2.2-2.1.6.6.8-.2,1.2-.4,2.9,1.2,5.6,2.7,8.5,3.9,2.7,1.4,5.8,2.5,7.9,4.1-.6.2-1.2.6-1.9.4.2-.4.2-.8-.6-1-.8.6-.6,1.2-1.6,1.6,0,.2.4.4.6.4,0,.2-.8,0-.6.4.8.6,1.2-.2,2.1.4.2-.4-.6-.6-1-1,.6-.2.8.2,1.4.4.4,0,.6-.2.6-.6.2.2.4.4,1,.4s.4-.2,0-.4c.6-.2,1.6,0,2.1,0,0,.4,0,.8.2,1,.6-.2,1-.6,1.7-.4,0,.8-.6,1.2-.8,1.9-.6,0-1.2-.4-1.6,0,.2.4,0,1.2.8.8,0,.6-.6.6-.6,1s.8.4,1,.8v.4c-1,1.2-1.9,2.5-1.9,4.7-.8.8-.6,2.3,0,3.5-1.2,1.4-1,2.3-1.7,3.9-.6,0-.6.2-1.2.2-.2.2.4,1.2-.2,1.4,0,.6-.4-.4-.8-.4-.4.4,0,.4,0,.8-1,0-.4.6-.6,1-.6-.2-.6.4-1,0-1.2,3.5-2.9,6-4.3,9.1-1.2,0-1.9-1.4-3.1-.8.2.4,1,.6,1.6,1,.4.2,1.6,1.2,1.6,1.2.8,0,1.6-2.5,1.9-3.7.8-2.1,1.4-3.5,3.3-4.1,0-.4-.4-.2-.2-.6,2.5-2.3,4.3-5.2,5.8-8.5-.2-.4-.4-.8,0-1.2-.4-.6-.8.2-1,0,0-.8,1.2-.2,1.4-.6.6-.2.2.8.8.6.8-.2.4-1,1-1.6.4,0,.8,0,.8.2,1.4-1.7,4.7-1.6,6.4-2.7.4-.2.4.4.8.2.4,0,.4-.4.4-.8,2.5-1.9,6.6-2.7,8.9-5.2h.4c.4-.2-.2-.2,0-.6,1.2-1,2.5-2.5,4.1-2.5.8-1.2,2.1-1.6,2.9-2.5.6,0,1,.2,1.6.2.2-.2-.2-.6-.6-.4,0-.2.6-.4.6-.2.8-.6,1-1.4,1.9-1.9,2.7.4,24.2,11,24.2,11,0,.6-.6.2-.8.2-.4.2-.2.6,0,.8-2.3-.4-4.8-.8-6.6-.8s-.4.4-.4.8c-1,0-2.3.6-2.9,1.4-.4-.2-.6-.2-.8-.6-.4.4-.8.6-1.2,1.2-.4-.2-.8-.4-1.6-.4-.4.4.6.6.2.8-1.4-.6-1.6.6-2.7.8,1.4.6,2.9-.2,4.3-.6,3.3-.8,6.4-3.9,10.3-1.6,1.4.4,1.6-.6,2.5-.6.2.4.2.8.4,1.2.4-.4.6-1.2.4-1.9,1.2.8,2.5,1,2.9,2.3-.4-.6-1.2-.2-1.4.2,0,.6.4.6.8.8-.2.6-.6.2-1,.4.6,1-1,1.6-.2,2.5-.4.4-1.2.6-1.6,1,.2.4-.2.8,0,1.4-.2.2-.4.6-.8.6-1.4,19.6-2.5,39.2-3.9,58.5-1,.2-1.7.4-2.1,1,.2.6,1.6,0,1.9.4l-1.2,15.5s-.4,2.5-.4,3.1c-.8.4-1.7.4-2.1,1.2-3.5.4-4.5,3.3-7,4.7-.2-.2.4-1-.2-1.4-.6.2-.4,1-.2,1.2-1.2.6-1.6,1.4-3.1,1.9-1.2,1.7-3.5,2.1-4.8,3.7-.4,0-.4-.2-.6-.2-.8,2.5-4.3,2.9-5.4,4.5-.2.4-.4-.2-.6-.2-.4.2,0,.4,0,.6-.4.2-.6-.2-1-.2-2.3,1.2-3.7,3.5-5.8,5,.2,1.2-.8,1.4-1.2,2.1-.8,0-1.4-.2-1.6-.4-.2.2-.2.8-.2,1.2,1,.6,2.3,0,3.1.2.4-.2.4-.6.4-1,.6-.2.4.6.8.6.6,0,.4-1.6.4-1.6,1.2-.4,1.2-1.9,2.1-2.5.4,0,.2.4.6.6.6-1,.8-2.3,2.1-2.5.4.8,0,1.9-.8,2.3.2,1.2-.8,2.1-1.6,2.7.2.6.6,1.9-.4,2.3-.4-1-.8-1.7-1.6-2.1-.8.2-.6,1.6,0,1.7-.2.8-.6-.2-1,.2-.2.4,0,.6,0,.8,1.2-.6,1,.2,1.7-.4.2.6.8.6,1,1-.6,0-1-.8-1.6-.4,0,.8.8.8,1,1.4.2.6-.2-.4-.6-.2.2.6.8,1.2-.6.2-.4.6.2,1.2.6,1.4-1.7.4-.8,2.7-3.1,3.1,0,.4.4.6.2,1-1.2,0-1.2,1-1.7,1.6-.2,0-.2-.6-.4-.6-.8.4-.4,1.6-1,1.9.2-.4-.2-1.2-1-1,0,.8,0,1-.2,1.7-.6,0-.8-.4-.2-.6M223,47c-.4-.2-1,0-1,.4.2,0,.2.2.4.4.4,0,.6-.4.6-.8M224,47.2c-.2.6.6.6,1,.4.2-.6-.8-.8-1-.4M225.4,49.9c0,.6,1.4,1,1.6.2-.8-.6-1.6-1.6-2.9-1,.2.6.6.6.8,1,.4,0,.2-.2.6-.2M224.2,44.1c-.2.8,1,.8,1.2.2-.4,0-.8-.6-1.2-.2M226,45.4c0-.4-.4-.4-.8-.6l-.6,1q.2,0,.4.2c.4,0,.4-.6,1-.6M225.2,42.9c-.4.4.4,1.4.8,1-.2-.4-.2-1-.8-1M227.5,48c0,.4-.8,0-.8.4.4.2.4.6,1,.4.2,0,.2-.8-.2-.8M228.5,44.9c-.2-.2-1-.6-1.2,0,.4.2.4.6,1.2.4,0,0,.2-.2,0-.4M229.3,43.3c-.4-2.9-2.5,1.4-.2.2l.2-.2ZM231.8,46.4c.6.4,1.4.4,1.9,0,.4.4,1,.8,1.4.6-.4-.8-1.2-1.7-2.1-1.2-.4-.6-1.7-.8-2.7-.6,0-.4-.4-.6-.6-1-.4.4-1-.2-1.2.4.4.8,1.4.6,2.1,1.4-.4,0-.4.2-.4.6.2.4.4.6,1,.6.2-.4.2-.8.6-.8M229.3,37.9c-.4.4.4,1.2.8.8,0-.4-.4-.8-.8-.8M230.8,39.8c.6.4,1.2.8,1.9,1,.2-.6-1.6-1.6-1.9-1M234.7,138.1c0,.4-.4.4-.4,1,.2,0,.8.6,1.2.2-.6-.4-.2-1-.8-1.2M234.9,141c.2.4.8,1,1.2.6,0-.4-.6-1-1.2-.6M236.8,46.2c-.4-.2-1-.4-1.6-.4-.2.4,0,1.2.2,1.4.8,0,1.2-.6,1.4-1M235.5,142.5c-.6.4.2,1,.6.6,0-.4-.2-.6-.6-.6M236.4,88.7c.6-.2.4,0,1,0,.4-.4-.4-.8-.6-1-.4.2.2.4-.2.6,0-.4-.4-.2-.4-.6.2-.2.2-.4.2-.8-.2,0-.2-.4-.4-.4-.8,1,0,1.7-.4,2.5.2,0,.2.4.8.2.2-.2-.2-.2,0-.6M237.4,91.6c.4-.6-.4-.6,0-1-.2-.4-1.2-.4-1.4-.8-.2.8-.4,1.7.2,2.1.2-.8.4-.8,1.2-.4M237.2,94.7c.4-.4,0-1.4-.4-1.6-.2.8-.4,0-.8.4,0,.4,0,1,.2,1.2q.6-.4,1,0M236.4,97.6c.2.4.8.8,1.2.4.2-.6-1.2-.8-1.2-.4M238.2,86.1c-.2,0-.4-.2-.8-.2,0,.2,0,1.6.8,1.6.2-.2-.2-.8,0-1.4M239.5,145.3c-.2-.8-1.2-.6-1.6-1-.4.2-.4.6,0,1,.6-.4,1.2.2,1.6,0M238.2,89.6c0,.6.4,1,.8,1,.8-.4-.2-1.6-.8-1M238.7,107.1c-.4,0-.6.4-.6.8.4,0,.6.6.8.2,0-.4-.2-.6-.2-1M240.5,90.2c0,.8.8,1,1,.6,0-.4-.6-.8-1-.6M242,87.1c-.4-.4-1.2-.2-1,.6.2,0,.4.2.6.2,0-.4.4-.4.4-.8M242.4,79.2c0-.6-.4-.4-.8-.2,0,.4.2.6.6.6,0-.2.2-.2.2-.4M244.6,40.8c-.4-.6-1.6-.8-1.6.2s1,0,1,.4c-.8-.2-1,.2-1,.8.2.2.2-.2.6,0,0,.2-.2.4-.2.8.6.4,2.1,1,2.7.2-1-.4-1.9-1.4-1.6-2.3M246.9,37.9c0-1-2.1-.4-1.6.4.8-.6,1,.2,1.6-.4M245.7,29.7c-.2.8,1.2,1,1.2.2-.4,0-.8-.6-1.2-.2M245.9,31.3c-.2.4.6,1.4,1,1,0-.6-.4-.8-1-1M245.9,40.4c0,.6.8,1,1.2.8,0-.6-.8-1-1.2-.8M247.7,138.5c-.2.4.6,1,1.2,1,.2-.4-.8-1.2-1.2-1M251.3,139.6c-.2,0-.4-.4-1-.4,0,.4-.4.6-.4,1.2.8,0,1.2-.4,1.4-.8M252.1,145.5c-.4,0-1-.4-1.4,0,0,.6,1.4,1.2,1.4,0M252.7,39.8c.6-1-1-1.2-1.7-.8,0,.4.2.8.4.8.2-.6,1,0,1.4,0M251.3,148.6c-.4.6,1,1.7,1.4,1-.6,0-.8-.8-1.4-1M251.3,138.1c-.4.6,1.2,1.2,1.6.6-.4-.6-1.2-.6-1.6-.6M251.3,116.2l1.6.6c.2-.4-1.2-1.4-1.6-.6M251.7,132.7c.2.2.8.4,1.2.2,0-.6-1.2-.6-1.2-.2M254.4,38.8c0-.6-.6-.6-1-1-.2.6-.8.6-.6,1,.6-.4,1.2.4,1.6,0M252.9,148.9c.4.4,1,1,1.6.6,0-.6-1.4-1.2-1.6-.6M253.9,117.2c.2.4.6,1,1.2.6,0-.6-1-1-1.2-.6M253.9,134.2c.6.6,1.7,1.2,2.5,1-.4-1-1.9-1-2.5-1M254.8,33.2c0-.4-.2-.6-.6-.6,0,.2-.2.2-.2.6.2.2.8.2.8,0M255.4,132.5c-.4,0-.8-.4-1.2-.2,0,.4.2.6.6.8.2-.2.6-.2.6-.6M255,84.6c-.4,0-.4.2-.6.2,0,.6.4.6.8.8.2-.2,0-.8-.2-1M256.2,129.9c.4-.4,1-.4,1.2-.4,0-.6-.4-.8-.8-1,0,1-1,.2-1.2,1,.2,0,.2.2.4.4q-.4,0-.6.2c0,.6.8,1,1.2,1,0-.6,0-1-.2-1.2M255.6,118.3c.4.2,1,1,1.4.2-.4,0-1-1-1.4-.2M255.6,134c.4.2.8.6,1.4.6.2-.4-1.2-1.4-1.4-.6M257.6,87.1c0-.4-.2-.8-.2-1,.4-.2.4.2.6,0,0-.4.2-1-.4-1-.2.2-.6.2-.6.6.2.6-.6.2-.6,1,.2.4.4.6,1,.6q0-.2.2-.2M257.9,128c-.2-.4-1-.4-1.4-.2v.4c.4.4,1.2.2,1.4-.2M257.4,92.1c-.4,0-.6.2-.6.2,0,.4.2.6.6.8.2-.2.2-.8,0-1M257.4,145.6c-.6.8.8,2.1,1,1.4-.4-.4-.6-1-1-1.4M258.5,127c-.2-.2-.8-.6-1.2-.2,0,.8.6,1,1,1.2,0-.2.2-.4.2-1M257.4,143.7c0,.6.6.8,1,.4.2-.6-.8-.6-1-.4M257.6,132.7c-.2.4.6,1.4,1,1,0-.6-.4-.8-1-1M258.9,154.4c-.4-.4-1.4-.4-1.4.2.4.2,1.2.2,1.4-.2M257.7,124.5c0,.4.6.8,1.2.6-.2-.6-.8-1-1.2-.6M258.7,134.8c.2.2.6.6,1.2.2,0-.6-1-.8-1.2-.2M258.9,135.6c0,.2-.2.4,0,.6.2.2.8.6,1.2.4,0-.8-.8-.6-1.2-1M285.5,61.3s-13.6-6.4-20.5-9.5l3.9,51.8.6,7.4c0,.6-1.2,1.6-1.9,2.1-1.2,1.6-2.3,2.7-4.1,3.1-.6.4.6.8,0,1-1,1-2.7,1.2-3.1,2.7-.4.4-1.2-.2-1.4.2l21.9,11,4.7-69.8ZM259.3,147c-.6.2-.2,1,.4,1,.2-.2.2-1.2-.4-1M259.1,140.4c-.2.4.2,1,.8,1,.2-.4-.4-1-.8-1M260.5,74.9c-.6-.2-.6-.6-1.2-.6-.4.2-.2,1,.2,1.2.2-.6.8,0,1-.6M259.3,123.7c0,.6.6,1.2,1.2,1-.2-.6-.8-1.2-1.2-1M259.5,131.1c-.2,1,1.4,1,1.4.2-.4-.2-1-.4-1.4-.2M260.7,88.1l-.6-.4c-.2.4-.2,1.4.4,1.4,0-.4.2-.6.2-1M260.8,136.3c-.2.6,1,1,1.4.4-.6-.2-1-.8-1.4-.4M263.2,124.9c-.6.4-1-.6-1.7-.6-.2.2-.2.8,0,1,.2.4,1,0,1,.4-.4,0-.8,0-.6.4,2.7,0,4.1,2.7,6.4,2.3-1.7-1.2-3.9-1.7-5-3.5M261.6,141.2c-.4.4.4,1.2.8.8,0-.4-.4-.6-.8-.8M262.4,134.6c0,.2,0,.6-.2.8.6.4,1.2.8,2.1,1,.2-.8-1.2-1.2-1.9-1.7M264.9,156.9c-.2,0-.4-.2-.6-.2l-.6,1c0-.4-.2-.4-.4-.8-.4.2-.8.2-.8.6.8.6,1.4.2,2.1.8.2-.4.4-.8.2-1.4M264.3,94.1c-.4.2-1,.8-.4,1.2.2-.4,1-.8.4-1.2M264.1,151.5c0,.4-.4.2-.4.6.2.2.4.6,1,.4.2-.2-.2-.8-.6-1M263.9,123.6c-.4.8,1.2,1.2,1.4.4-.4-.2-.8-.8-1.4-.4M264.7,67.9c-.2.4-.8.2-.8.8.6.6,1.6-.4.8-.8M264.9,134.8c.2.4.8.8,1,.4,0-.8-.8-.8-1.6-1-.4.4-.2,1,.4,1.2.4-.2-.2-.6.2-.6M264.9,85.8c-.4.6.4,1.2,1,1.4.4-.8-.6-1-1-1.4M266.3,157.5c0-.2.4-.2.2-.8-.4-.2-.6-.6-1.2-.8-.6.8.6,1.2.8,1.6-.4,0-.6.2-.6.4.4.2,1.2,1,1.4.2-.2-.2-.6-.2-.6-.6M265.9,84.4c0,.4.2,1,0,1.2,0-.4-.4-.4-.6-.2,0,1,.8.4,1.2.8.4-.4.4-2.3-.6-1.7M265.3,125.1c.6.2.8.8,1.6.8.2-.6-1.2-1.6-1.6-.8M265.3,132.5c0,.8,1.2,1.2,1.6.6-.6-.2-1.2-.8-1.6-.6M266.9,153.8c-.4-.2-.8-.2-.6-.8-.2,0-.4-.2-.6-.4,0,.2-.2.4-.2.6.2.2.6,0,.6.2-.2,0-.4.2-.4.4.2.2,1,.6,1.2,0M265.5,159.2c.2,1,1.4.6,1.9.2-.6-.4-1.4-.4-1.9-.2M265.7,155.3c-.4.4,1,1.4,1.2.6-.2-.4-.8-.6-1.2-.6M265.9,149.7c-.4.4.4,1.2,1,.8-.2-.6-.4-.8-1-.8M266.3,89.4c-.2.2-.2,1,0,1.2.8,0,.6-1,0-1.2M266.9,148.9c.4.2,1.2.8,1.6.4,0-.6-1.4-1-1.6-.4M268.8,158.2c0-.4-.2-.8-.8-.8.4-.4-.6-.6-.8-1-.6.6,0,1.6.6,1-.2.4.4.8.8,1,.2,0,.2-.2.2-.2M268.4,146.2c-.2-.2-.6-.2-.8,0,0,.4.2.6.6.8,0-.4.2-.4.2-.8M269.4,147.8l-1.2-.6c-.2.2-.4.6-.4,1,.2.2.4.6,1,.4-.2-.4.4-.2.6-.8M269.6,156.3c-.6,0-1-.6-1.2-1.4-.4,0-.6.2-.6.2,0,.8.8.8.4,1.4.6.2.8.8,1.4,1,.2-.4-.4-.8,0-1.2M268.8,126.5c-.2,0-.6,0-.8.2,0,.8.8.8,1.6,1,.4-.6-.6-.6-.8-1.2M270.9,144.7c-.4-.2-1-.2-1.2,0-.2-.6-.8-1.2-1.2-.8-.2,1.4,1.2.6,1.4,1.2.4,0,.8,0,1-.4M268.6,142.9c.2.6,1,.8,1.6,1.2.2-.6-1-1.6-1.6-1.2M268.8,140.2c0,.6,1,1,1.2.4-.4,0-.6-.8-1.2-.4M270.1,158.4c-.2-.2-1.4-.4-1.4,0,.6,0,.4.8,1,.8s.2-.6.4-.8M270.5,128.8c-.4-.2-1.4-.8-1.6-.2.4.4.8.8,1.4,1,0-.4.2-.4.2-.8M270.1,139.3c-.4-.4-.8-.4-1.2,0,0,.8,1.2.8,1.2,0M269.8,132.7c.2.4,1.2,1,1.6.4-.2-.4-1.4-.8-1.6-.4M269.8,136.5c0,.4.4.6.8.4,0-.6-.6-.8-.8-.4M270.1,146.6c.2.4.4.8,1,.8.4-.4-.8-1.4-1-.8M270.5,142.4c0,.6,1,1.4,1.4.6-.4-.2-1-.8-1.4-.6M271.3,149.7c-.2.4.4.8,1,.8.2-.2-.4-.8-1-.8M272.5,144.3c-.4,0-1-.8-1.2-.2.4.2.4.6,1,.8,0-.4.4-.2.2-.6M272.1,141c0,.6.6.8,1,.6,0-.6-.6-.8-1-.6M273.8,142c.2-.8-1-.6-1,0,.2.2.8.2,1,0M272.9,146.8c0,.8,1.2,1.2,1.9,1.6.2-.8-1-1.4-1.9-1.6M274.2,129.4c-.4,0-1-.2-1,.2.2.6,1.6,1.6,2.1.8-.4-.4-1.2-.2-1.2-1M273.4,140.2c0,.6.6.6,1,.4,0-.6-.8-.6-1-.4M274.4,148.9c0-.4-.2-.6-.6-.4q-.2.2-.2.4c.2.2.6.2.8,0M277.9,137.3c-.2.6.4.8.8.6,0-.6-.6-.8-.8-.6M277.9,154.6c.6.2.6,1,1.4,1,.2-.6-1.2-1.6-1.4-1M277.9,162.1c0,.6.8.8,1,.4.2-.6-.6-.6-1-.4M280,159c-.6,0-.8.2-.8.6.4,0,.4.4.6.6.4-.2.6-.8.2-1.2M283.3,158.4c-.8-.4-1.2-.8-1.9-1-.4.4.2,1,.4,1.4.4-.4,1.4.4,1.6-.4M281.6,54.4c.4.2,1,.6,1.4.2.2-.6-1.2-.8-1.4-.2M282.6,59.2c0,.6,1.2,1,1.4.4-.4-.2-1-.6-1.4-.4M282.9,106.9c-.2.6.2,1.2.6,1.6.4-.6.2-1.6-.6-1.6M284.3,132.1c-.4-.4-.8-.4-1,.2.6,0,.2,1,.8.8.4-.4-.2-.8.2-1M285.9,129.6c-.6,0-.8.8-.6,1.2.6,0,.8-.8.6-1.2M288.6,50.5c-.4,0-.4-.2-.8-.4,0,.2,0,.6-.4.4-.4,0-.2-.8-.6-.6-.2.4-1.4.8-1,1.4.8-.4,2.5.2,2.7-.8M285.9,133c0,.4.6.8,1,.6,0-.8-.6-1-1-.6M286.8,105.3c-.4.6.2,1.6.8,1.6.4-.6.2-1.7-.8-1.6M288.8,36.9c-.6-.2-1.2-.2-1-.8h-.6c-.2.4-.2.2,0,.8.4.2,1.2.8,1.6,0M287.2,133c.2.6.6,1.2,1.4,1,.4-.4-.8-1.4-1.4-1M296.3,47.8c-.6,0-1.6,0-2.1.2-.6-.2-1.4-1.4-2.1-.6.4.2.8.4,1.2,1-.2,0-.2.2-.2.4-1,0-1.6.6-2.7.8-.4,0-.2-.6-.6-.8-.4.2,0,1-.4,1.2-.4,0-.8-.6-1,0,3.1,1,5.8-1.2,7.9-2.1M289.7,145.5c.6.4-.2,1-.4,1.2-.4-.4.6-.8.4-1.2M290.9,44.5c0,.6.8.8,1,.6.2-.6-.6-.8-1-.6M293.2,32.4c.2.4.8.6,1,.4.2-.6-.8-.8-1-.4M295,41.2c.2.6,1.6,1.7,1.7.6-.6-.2-1-1-1.7-.6M295.5,136h-.4c-.4.6,0,1.4.4,1.6.2-.4.2-1.4,0-1.6M295.7,34.4c.4,0,.8.6,1.2.2,0-.6-1.2-.8-1.2-.2M298.5,47c-.4-.4-1.2-.2-1.2.4.4.4,1,0,1.2-.4M300.8,74.9c0-1-.6-1-1.6-1.2-.2.6.6.8.6,1.4.4,0,.8,0,1-.2M300.8,46.2c-.4-.8-2.1,0-1.4.6.4-.4,1.4,0,1.4-.6M302.3,133.6c0-.6-.2-.8-.6-.8-.4.4-.2,1,.2,1,0-.2.4-.2.4-.2M301.7,36.3c0,.6,1.4.6,1.6.6,0-.8-1-1-1.6-.6M304.3,71c0-.4-.8-.6-1-.2,0,.4.2.4.4.8.2-.2.6-.2.6-.6M303.5,36.9c.2,1,1.4,1,2.3,1,.2-.6-1.4-1.4-2.3-1M305.2,36.3c.6.2,1.2,1,1.6.6,0-.6-1.2-1.2-1.6-.6M307.9,37.9c.2.6.8.8,1.6,1,.2-.6-1-1.4-1.6-1M308.5,124.3c-.2.8,1,1,1.2.2-.4,0-.8-.6-1.2-.2M311.2,64.2c-.2-.4-.6,0-.6.4s.2.4.6.4v-.8ZM314.7,97.6c-.2-.2-1-.2-1,.2.2,0,0,.8.2,1,.6-.2.4-.8.8-1.2M316.5,73.2c-.4-.4-1.2-.2-1,.6.2,0,.4.2.8.2l.2-.8ZM319.2,46.2c-.2,0-.2-.2-.4-.2,0,.4-.2,1.4.4,1.6.2-.2,0-1,0-1.4M319.2,44.7c-.2.2-.6.8-.2,1.2.6,0,.8-1.2.2-1.2"/>
        <path class="cls-1" d="M333.5,68.5c.8-.2,1.4-1,2.5-.6.6-.8,1.4-1,1.9-1.9,1.7.4,3.3-.6,4.1-1.9l-23.1-10.3c.6-.6,1.7-.6,1.9-1.2-.4-.4-.8.4-1.4,0,.2-1,1-.8,1.9-.6.4-.4-.4-.6-.8-.6.4-.6.8-1.4,1.6-1.7-.2.2-.2.6-.2.8.4.2.8.6,1,.2,0-.4-.4-.6-.8-1,.2-.2.6-.2,1-.4,0-.4-.2-.4-.4-.6.8.2.4-1.4,1.2-1.7,1,.2,1.2,1.2,2.1,1.4.4-.4-.4-.8-.6-1.4.2-.4,1.2-.4,1.7-.6-.4-.8-1.7-.6-1.9-1.6l2.3.4c.4-.8-1.4-.8-1.6-.6-.2-.6.4-1.4,1.2-1.4.2-1.4,1.2-2.1,2.5-2.1,0-.6-.6-.4-1-.6.4-.6,1.7-.4,2.1-1-.2-.4-.4-.6-1-.6.8-1.2.8-2.3,1.6-3.5,1,0,1.2,0,1.9.6.4-.8-.6-1.2-1-1.6l1.7-2.1c.6-.2.4.4,1,.4.4-.6-.6-.6-.4-1.2.4.4.8-.4,1.6-.4.2-.6-.8-.2-.6-.6,1-.2.4-.8.8-1.4,1,.2,1.6.8,2.3,1.2.4-.2.6-.8.4-1,0,0,1.2.4.8.8.4.4-.8.4-.8.8.2.4,1.7.2,1.4-.2.4-.2.2,1,.8,1.2.6-.2.2-.4.2-1,.4.2.4.8.8,1,.6-.2.2-.4.2-.8l.8.6c.2-.4-.2-.6,0-1-.4,0-1.4-.6-1.6-.2-.4-.4-.2-.8-.6-1.4-1.2.6-2.1-1-3.3-1.6l1.4-.4,31.2,13c2.9,1.4,2.7,1,4.7,2.7-.8.6-1.7,1.2-1.7,2.1-2.7,2.1-5,4.7-7.4,7.2-.4,0-.6-.2-1-.2-.4.4.2.4.2,1-.4.4-.8.8-1.6.8-.4-.2-.8-.8-1.2-.2-.2.6.8.4.8.8-.2,1.9-2.1,2.3-2.9,3.9.4.6,1,0,1.4.6,1-1,1-2.9,2.5-3.5.4.2.6,1,1,1.2-.2,32.8-.2,65.5-.6,98.1-3.1-1-8.1-1.4-10.7.4-.6,0-.2-.8-.8-.8-.4.4.2.8,0,1.2-1.4-.2-1.9,1.4-2.9.8-.4.2-.4,1-.8,1.4-3.9,1.7-7.6,3.9-11.4,6-.6.2-.4-.6-.8-.2v.4c-1.6.2-3.7,1-4.8,1.6l1-96.9ZM321.9,52.8c0,.8,1.2,1,1.2.2-.4-.2-1-.4-1.2-.2M326.7,47c-.2.8,1.2,1.4,2.1,1.4.2-1-1.6-1-2.1-1.4M328.1,43.1c0,.6.6,1,.8.6.2-.6-.4-.8-.8-.6M328.5,48.7c0,.6.8.6,1,.6,0-.6-.6-.8-1-.6M328.9,45c.8.2.8,1,1.6,1,.6-.6-1-1.7-1.6-1M329.3,42.5c.2.4.8.8,1.2.4.2-.6-1-.8-1.2-.4M329.8,51.6c.6.2,1,.4,1.6.4.4-.6-1.4-1.2-1.6-.4M331.8,43.5c-.4-.2-1.2-.6-1.4,0,.2.4,1.2.6,1.4,0M331.4,44.1c-.4.6.2,1,.6,1,.4-.4,0-1-.6-1M333,40c-.6-.4-1.4-.6-1.6,0,.4.4,1.4.6,1.6,0M332.6,37.1c0-.4-.6-.8-1-.6v.6c.4,0,.8.2,1,0M333,38.1c-.4-.2-1.2-.4-1.4,0,.4.4,1,.8,1.4,0M333.3,41.6c1.4,1,3.5,1.9,4.5.6-1.2,0-1.9-.8-2.9-.2-.6-.8-2.1-1.6-3.3-1,0,.4.2.6.4.8.4.2.2-.6.8-.6.2.2.4.4.6.4-.6,0-1,.2-1.2.6.4.8,1.4,0,1.2-.6M332.4,42.5c0,.8,1.2,1.6,2.1,1.7,0-.8-1.4-1.4-2.1-1.7M332.4,48.5c0,.4.6,1,1,.6.4-.4-.6-1-1-.6M333.5,53.6c-.4,0-.6-.2-1.2-.4v.8c.6.4.8.2,1.2.2v-.6ZM334.7,129.8c-.4,0-.8-.6-1.4-.2,0,.6.4.6.2,1.2.2.2.4.6,1,.6.2-.4.4-.8.2-1.6M333.9,40.2v.4l1.6.6c.4-.6-1-1.4-1.6-1M334.9,71.8c0-.8-1-.8-1,0,.2,0,.4.2.4.2.4.2.2-.2.6-.2M336.4,43.5c-.4-.2-1-.4-1.4,0,.2-.6-.6-1-1-.6,0,.4.6.8,1,.6,0,.4.6.6,1,.6l.4-.6ZM335.9,38.3c.4,0,.4.2.6,0,.4-1.2-1.7-1-1.9-.2.2.2,1,0,.8.8.6,0,.8.6,1.4.6.4-.4-.4-.8-.8-1.2M339,33.6c-.8-.6-.8-1-1.7-1.2-.2,1-1.4,0-1.7.6.6.8,1.9.6,2.7,1.2.4-.2.8-.4.8-.6M337.2,35c0-.8-1.7-1.2-1.7,0,.6.2,1.2,0,1.7,0M337,30.7c0,.2-.2.2-.4.4,0,.4.6.6,1.2.6.2-.2-.4-.8-.8-1M337,28.6c.2-.4,0-1.2.8-1-.2.6.4,1,.8,1.6l-1.6-.6ZM338.4,35.5c-.4.2-.8-.4-1.2,0,0,.8.6.8,1.2,1,0-.2.2-.8,0-1M337.8,32.1c.6.2.8,1.2,1.6,1.2.4-.6-1.2-1.7-1.6-1.2M339.2,36.9c0,.4.4.6,1,.8.4-.4-.4-1.4-1-.8M342.1,33.2c-.4-.4-.8-.4-.8-1-.4,0-.8-.4-1,0-.2.4,1.2,1,.6,1.2-.2-.2-1-.4-1,.2.4.6,1.7.8,2.5.6q-.6-.4-.4-1M340.9,35.2c.2,0,.4-.2.4-.6-.2-.2-1.2-.4-1.4,0,.6.4.6,1.9,1.6,1.4.2-.6-.6-.4-.6-.8M341.5,37.7c-.2-.2-.2-.4-.6-.4,0,.2-.4.6,0,.8.4.2.4-.2.6-.4M342.1,35.7c.4.4,1.4,1,1.9.4-.4-.4-1.6-1-1.9-.4M343.6,44.7c0,.6,1,.8,1,.2-.2-.2-.6-.4-1-.2M345.4,40.4c-.4-.2-1.4-.6-1.4,0,.2.4,1.2.6,1.4,0M345.9,32.6c.2.4,1,.2,1-.2l-1.6-.6c.2.8-.4.4-.6,1.2.2.2.4.4.8.4.2-.2,0-.8.4-.8M345.9,38.8c-.2.4.2,1,.6,1,.4-.4,0-1-.6-1M345.9,41c.2.4,1.2.4,1.6.2,0-.8-1.4-.8-1.6-.2M350.4,40l-3.1-1c-.2.4-.2.8,0,1,.6.2.4-.2.8-.4.4.4.2.4.4.8.8-.2,1.4.2,1.9-.4M352.1,66.6c.2-1.7,2.1-1.6,1.9-2.9-1.6,1.7-1.6,1.4-3.1,2.9.4-.2.8,0,1.2,0M355.2,128.8c-.6,0-.6-1-1.2-1.2-.6.6-2.3-.6-2.9.6.4.2.6.4.8.8.6,0,1.2-.2,1.4-.6,0,.6.8.4,1.2.8-.4.2-.2.8,0,1,.6,0,.8-.8.8-1.4M355.6,135.8c-.6.4-.8,0-1.2-.2-.4.2-.4.6-.6.8-.4-.2-.6-.8-1-.8l-.4.2c-.2,1,1,.6,1.6.8.6.2,1.2,1.2,1.7.2-.6-.2.2-.8-.2-1M354.9,119.9c0-.6.6-.6.6-1.2-.8-.2-.6-1.4-1.6-1.6-.2.8-.8,2.5.2,2.9.2-.4.4-.4.8-.2M354.3,105.3h-.6c-.2.4-.2,1.4,0,1.7.4,0,.2.2.8.2.2-.6-.2-1.4-.2-1.9M355.8,112.5c-.2-.2-1.2-.2-1.2.2.4,0,.2.8.8.6.2-.2.4-.2.4-.8M355.8,136.9c-.2.8-.6,1-1,1.4,1.4.2,1.2,2.9,2.3,2.7-.2-1.7.2-3.7-1.4-4.1M360.1,59c-1.6,1-3.3,1.4-3.9,2.7,1.4-.4,3.9-1.4,3.9-2.7M359.7,135.4c-.4-.6-.6-.2-1.2-.2,0-.6-.4-.8-.2-1.4-.8,0-1-1-1.9-1-.6,1.7,1.4,1.9,1.6,3.3.8-.2,1.6-.2,1.7-.8M357,94.1c0,.6,1,1.2,1.4.6-.4-.4-.8-1-1.4-.6M358.2,99.3c.4.2.6.2.8-.2-.8-1.6-2.5.2-1.4,1.4.8,0,.8-.6.6-1.2M357.8,88.9c0,.6-.6,1.2-.4,1.6,1,.2,1-1.4.4-1.6M359.3,97.4c-1.2-.2-1-1.4-1.9-1.6-.2,1.4.4,1.7,1.4,2.3.2-.2.6-.4.6-.8M358.5,141.8c-.4-.4-1.2,0-1.2.8.2.2.4.2.8.2.2-.4.2-.8.4-1M358.9,152.6c-.2-.4-1-.4-1.2-.2,0,.6.2,1,1,.8,0-.2.2-.2.2-.6M358.9,92.9c-.2.4-1-.2-1,.6l1.6.6c.2-.2-.2-1-.6-1.2M360.9,95.6l-1-.6c-.4.2,0,.8-.4.8-.4-.2-.8-.6-.8-1.2-.6,0-.6.6-.8,1,.6.6,1.9.4,1.7.8-.2.4.2,1.2.6,1.6.4-.6.4-1.6.6-2.3M359.1,147.4c-.6-1-1.9,1.4-.4,1.4,0-.6.2-.8.4-1.4M360.3,136.7c0-.4,0-.8-.4-1-.2.6-1,.4-1,1,.6.6,1,.4,1.4,0M360.3,103c-.2,0-.2-.2-.4-.2-.2.6-.8.8-.6,1.4.2,0,.2.4.6.4.4-.2.8-1,.4-1.6M362.2,152.2c0,1,1.6.4,1.6,0-.4-.8-1,.2-1.4-.2,0-.4.8-.6.4-1-.8-.2-.8.6-1.4.8-.2-.4-1.4-.8-1.6-.2.2.6,1.4.2,1.6,1.2.4,0,.4-.4.8-.6M363,97.4c-.4-.6-.8-1.2-.6-1.9-.4-.4-1-.4-1.4,0,.6.6-.4,1-.2,1.4.8.2.4-.6,1-.4.2.2.2.8.4,1.2.4,0,.6,0,.8-.2M364.4,96.8c-.2-.2-1-.4-1,.2.2.2.4.8.8,1,.2-.4.4-.8.2-1.2M364.9,39.6c.2.4.6.6,1,.8,1-1.4.2-1.9-1-.8"/>
        <path class="cls-1" d="M418.2,164.3c-.4,0-.2.4-.6.4l-36.2-14.5c0-1,1-.8,1.2-1.6.2.2.2.6.6.6.6-1-1-1.6-1.6-1,.2-.8-.2-.6-.6-1,.2-.2,1-.2,1.2,0,.2-.6,1-1.7,1.9-1,.2-.2.4-.4.4-.6.6,0,1.2.8,1.9.4-.4-.4-1-.6-1.6-.8,1-.4-.8-1,0-1.7.4.2,1,.4,1.6.2,0-.8-.2-3.3,1.4-4.5l.4-83.2-11.6-5c.2-.4.2-.6-.2-.8.2-.2.8,0,.6-.6,0-.6-.6.4-.6-.2.4-.4,1,.2,1.6-.2,0-.4-.4-.4-.6-.6.2-.2.4-.6,1-.6-.2-.6.8-1.9,1.6-1.2.2-.2,1-1.2,0-1.2.6-.6.6-1,1.6-.8.4-.4-.4-.4-.2-1,.6-.4,1.7-1.4,2.5-.6.4-.2.2-.6.8-.6,0-.8-1.2-.6-.8-1.2.6-.2.6,1.2,1.6.8.6-.2-.4-.8.6-.8-.2-.6-1.2-.4-1.6-.6,0-.8.8-.6,1.4-.6.4-.8,1.2-1.9,2.3-1.4.6,0,0-.4.4-.6,2.1.4,3.3-2.7,5.4-2.1.8-.2.2-.6.4-1,1-1.2,3.7-1.4,4.3-2.9.6.8,1.4-.6,1.2-1.7,1.2-.6,2.5-.8,3.1-1.9.6-.2.6.2,1.2.2-.4.2,0,.6.2,1,.4-.2.4-.6.8-1,0-.2-.4-.2-.6,0,.2-.4-.2-1-.4-1.6l14.9,6c.2.4,0,1.2.6,1.4.6-.2.2-.6.2-.8.6,0,.8.2,1.2.4.2.8,0,1.2-.2,1.6,0,.4.4.6.6.8.4-.6.8-.8.6-1.9l4.1,1.6c1,.6,2.7,1,2.5,2.3-.8.2-.6-.6-1-.8-.2,0-.4.4-.8.6.8.4.6,1.7.2,2.5-.6.2,0-.4-.4-.6-.4,0-.4.8-.6,1-.6,0-.8-.4-1.2,0,.2.4.8.8.6,1.2.2.6-.4-.2-.6.4,0,.6.6.6.4,1.6-.6-.6-1-1-1.7-1.2-.2,0,0,.4-.4.4.2.4.8.4,1,.6-.2,0-.6.8,0,.8,0,.4-.8.2-1,.4,0,.8.6.6.6,1.2-.2-.2-.6-.2-.8,0-.4.6.2,1.2-.6,1.4,0,.4.6.2.2.8-.4,0-.8-.4-1.2-.4-.4.4,0,1.2.4,1.4-.2.6-.8-.2-1.2.2l.8,1.6c.2.6-.6.2-.8.4,0,.8-.2,1.6.6,1.6-.6.4,0,1.4-.6,1.9,0,.6.8.4,1.2.6-.8.2-.6,1.2-1.4,1.4.8.6.6,2.5-.6,2.1-.4.6.6.4.4,1,0,.4-.6.4-.8.6.6,2.7.2,5.4-1.4,6.8.2.4.4.4.4.6,1.4-.4,1-1.7,1.7-2.5v51.9c-.2.4-.8.6-.8,1.4-.4-.2-1,.2-1.2-.2-1.9,1.4-4.7,2.7-4.5,5.2-.4.8-1.2.2-1.2,1.2-1-.2-1.6-.2-2.1.4.2.6.8.6.8,1.4-1.2,1.2-1.9,2.5-3.7,3.1-.2,1.7-2.9,2.1-2.1,3.9.4-.8,1.4-.8,1.9-1.9.4-.2.4,0,.8,0,.4-.2-.2-.4-.2-1,.6-.8,1.6-1,2.3-1.7.6-.6.8-2.3,1.6-2.1l27.1,10.3c.4-.4-.4-.6-.8-1,.4-.2,1-.2,1-.8-.2-.4-1-.4-1.4-.8l-.6-88s0-8.5.6-10.7c.4,0,.2.6.4.6,1-1.2,2.5-.6,4.1-.6.6-.2,1-.6,1.7-.4.6-.2-.4-.6,0-.6.8-.4.2.8.8.6.8.2.6-.6,1.2-.6.4.2.8.2,1,.6.6-.4.6-1.4,1.4-1,.2-.2.2-.6.2-1,1,0,1.9,0,2.3-.6,1.6.6,2.9-.6,4.3-.2.4-.2,0-.8.2-.8,1.2-.8,3.3,1,3.3-1,1,0,1.2-1.2,1.7-1.7.6,0,1,.2,1.2.6.6-1.4,1.9-1.7,3.5-1.4,0,.6-.4-.2-.6.2.4,1.4,1.9.4,1.9-.8,1.4.8,1.9,1.2,3.1,1.6l.2,63.6h-.6c-.4,0-.2-.8-.6-1-.4,0-.6.4-.6.8-.6,0-.4-.6-1-.4-.4.4.2,1.2.4,1.7.4-.2.4-.4,1-.2.2.8.8,1.4,1.4,1.9.2,12.6.4,25,.4,37.8-1-.4-1.9-.6-2.7-1.2,3.7,3.5,9.5,5,13,8.3-.8.8-.6,2.1-1.9,2.5.4.2.2.8,0,1.2-.8,0-1.7,1.2-2.3.6,0,1.6-.4,2.7-1.6,3.9-.2-1-1.7-.4-1.7-1.6.2-.2,1.2.6,1.4,0-1-.8-2.1-1-2.7-2.1-1,.6,0,2.3,1.2,2.1-.2.4-.4,1.7.2,1.9-.2.4-.6-.2-.8.2,0,.4.6.2.4.8-.4,1.7-3.5,1-4.1,2.5-.4,0-.4-.2-.8-.2-.6.4-.6,1-.6,1.4-.8-.6-1.4,0-1.9-.4-.4.4-.2,1.2-.2,1.7-.8-.2-1,1.4-1.4,1.9-.6,0-1.2,0-1.4-.2-.4.4.2.2.2.8-.4,0-.4-.6-1-.4-.4.8-.4,1.7-1,2.3-.2-.2-.2-.6-.6-.8-.4.4,0,.8,0,1.2-.4.4-1.4,0-1.6.2q0,.2-.2.2c0,.4.4.6.8.6-.2.6-.8.4-1.2.2-.4.2.2.4.2,1-.4-.2-1,.2-.6.2-.2.2-.8-.2-1.2-.2-.6.4.4.8-.2,1.4-6.8-3.5-13.4-7.2-20-10.9,1.7-1.7,2.5-4.1,4.1-6,.2,0,.2.2.6.2,1-1.4,1.4-3.7,2.3-5.2-.8-.4,0-1.2-.4-1.7.2-.4.8-.2,1-.6-.2-.4-.2-1.4-1-1.4.2,1.4-1.2,2.7-.6,4.5l-1.6,1c0,.4.2.6.2,1-1.6.8-2.7,2.5-3.7,3.5-.4.6.6.6.2,1.4-.6,0-.6-.4-1,0,.8,1.7-1.4,1.9-1.6,3.7-1.4-.2-1.4,1.7-2.7,1.2-.2,0-.4.6,0,.8-.6.4-1.9.2-1.6,1.6-.4,0-.8-.2-1.4-.4-.4.2-.4,1-.2,1.4-1,.8-2.7,1-3.5.2-.4.4-.8.4-.6,1.2-.8.2-.6-.8-1.4-.6-.4.8,1.7.8,1.2,1.6-.8.2-.4-1-1.2-.8-.4.4.4,1,1,1.2,0,1.2-1,.6-1.2,1.6-.8-.4-2.3.2-1.7.8-.4-.4-1.7-.2-2.1-1,0-.2.6,0,.6-.2-.2-.6-.8-.6-1.2-.8-.6.2,0,.4,0,.8-.2-.4-1-.4-1.4-.6-.2.2.2.8.2,1.2.6,0,.6-.4,1-.2.2.8,1.7,1.4,2.7,1.4,0,.4-.2.8-.2,1.2-1,.6-1.7-.2-2.5-.8M378.5,50.1c.2.2,1.4,1,1.9.4-.6-.4-1.6-1.2-1.9-.4M379.5,49.5c0,.6,1,.6,1.4.2,0,.6.8,1,1.2.8-.2-1.2-1.6-1-2.5-1M383.9,149.7c-.6-.2-1.6-.4-1.9.2.6.4,1.7,1,1.9-.2M391.7,145.3c.2-.4.4,0,.8-.2-.2-1,.6-.2.6-1,.4.2.8.8,1.4.4-.2-.6-.6-.6-1-1,.6-.8,1-1.7,1.9-1.4.2-.6.6-.8,1-.8,0-1.9,2.3-2.9,3.9-3.7-.2.8,1.4.8,1.7.4-.4-.4-1-.4-1.2-.8,0-.2.2-.4.6-.6-.2.4,0,.8.4.6.2-.2.4-.6.2-1.2.4-.4,1-.4,1.2,0,.4-.4.2-1.2,1-.8-.2-.8.8-.8.8-1.6-.8-.6-1,.6-1.6.2-.4.6-1,1-1.4,1.4-.2-.4-.4-.4-.8-.6-.4,1.2-1.7,1.2-1.7,2.5-1.4.6-2.7,1.4-3.5,2.5-.4.6.4.6,0,.8-.2-.2-.2-.6-.6-.6-.4.4-.8,1.2-.6,1.7-1.2-.6-1.2,1.2-2.3,1-.2,1-1,1-1.6,1.4.2,1-.4,1-1,1.2,0,.4.2.4.2.8h-.8c-.4,1-1,1.6-1.9,1.4,0,.8.6.8,1,1.2.8-1.4,2.5-1.9,3.3-3.3M389,131.9h-.6c-.4.8-.4,1.4,0,1.9.6-.8,1.2-1.2.6-1.9M389.7,78.4c-.6,0-.8-.4-1.4-.6-.4.4.4.6.6,1-.2,0-.4-.2-.6,0,.2.6.4,1,.8,1.2.2-.4.6-.6.6-1.6M388.4,85.4c-.2.2,0,.8.4,1,.2-.2.2-1.2-.4-1M388.4,65.8c-.2.4,0,1.4.6,1.2.2-.4.2-1.2-.6-1.2M390.3,59c-.8-1.2-2.9.6-1.6,1.6.8-.2,1.4-.6,1.6-1.6M389,82.7h-.6c-.2.2.2,1,.6,1,.2-.2.2-.8,0-1M389.4,62.5c0-.4-.8-.2-1,0-.2.6,1.2.8,1,0M389.4,70.1c0-.4-1-.6-1,.2.2.2,1,.2,1-.2M390.5,47c-.4-.2-.8-.8-1.6-.6l-.4.8c.6.8,1.7.4,1.9-.2M389.9,57.8c.2-.8-1-.8-1.4-.4,0,.4.2.8.6,1,0-.8.4-.4.8-.6M390.1,61.9c.8-.4,1-.4,1.7-.2.4-.4,0-.6.2-1.2-.2-.2-.6-.2-1-.2-.2.2,0,.8-.4.8-.4-.2-.4-.8-1.2-.6,0,.8-.6.2-.8,1.2.8,0,.8,1,1.4,1.2.2-.4,0-.8,0-1M389,44.7c-.4.2.4,1,1,.4-.2-.4-.6-.8-1-.4M389.2,86.1v.4c.4.2,1,.4,1.2.2,0-.6-.6-1-1.2-.6M390.7,67.9c-.8-.2,0-.4-.4-.8-1.2.2-1.4,1.2-.2,1.4.2-.2.6-.2.6-.6M390.1,130.3c-.4.4-.4,1.2.2,1.4.2-.2.2-1.4-.2-1.4M393.6,60c.4.4.8-.2.8-.4.2.4.6.8.8.4.4-.6-.8-1-1.4-1.2-.2.2-.2.8-.4,1-.4-1-1,0-1.6-.6.8-.6,0-1.9-1-1.4-.2.4-.2.8,0,1.2-.6-.2-.4.8-.2,1,1-.2,1,.4,1.7,0,.2.4.4.8.8,1,.2-.4,0-1,.4-1M391.3,148.4c.2.2.6.4,1,.2,0-.6-1-1-1-.2M393.2,148.8c.4.8,1.4,1.7,2.1,1.6-.6-.6-1.2-1.9-2.1-1.6M394.8,63.7h-.4c-.4.6-.4,1.4.2,1.7.4-.2.4-1.4.2-1.7M394.4,120.3c0,.2-.2.4-.2.8.2,0,.4.2.4.4,1-.4,2.1,0,2.7.2.6-1.7-2.1-.4-2.9-1.4M396.3,143.1c-.6-1-1.7,0-2.1.4.4.4.8.6,1.6.6,0-.6.6-.6.6-1M394.4,62.5c-.6.4.6,1.2.8.6-.4-.2-.4-.6-.8-.6M396.3,146.8c0-.4.6-.4.8-.8-.4-.2-1.2-.6-.8-.8.2.2.8.4,1,0-.6-.4-1.6-1.2-2.1-.4.4.2.4.6.6.8-.4.4-.8-.2-1.4.2,0,.6.4.6.6,1,.6-.2.8-.4,1.4,0M394.8,128.8c-.6,1.4.6,1.6,1.2,1-.6-.2-.8-.6-1.2-1M396.3,147.4c-.4-.4-1.2-.2-1.2.4.4.2,1,0,1.2-.4M396.9,44.7c-.2-.4-.6-.6-1-.8-.2.4-.2.6-.6.8.4.2,1.6.4,1.6,0M399.4,61.9c.4,0,1,0,1-.4-1.2-.8-3.1-1.6-4.7-1.9-.6,1.2,1.6,2.1,2.3,2.9.2-.2.2-.6.4-.6.4.2.8,1,1.2.8.2-.4-.4-.8-.2-.8M397.9,132.7v-.8c-.2-.4-.4,0-.6-.2.2,0,.4-.2.4-.4-.6-.2-1-.6-1.4-.8-.2.6.6,1.7,1,2.3,0-.4.4,0,.6-.2M397.1,143.7c0,.2-.2.2-.2.4l1.2.6c.2-.6-.6-.8-1-1M397.5,126.1c-.4.4,0,1.2.6.8,0-.6-.2-.8-.6-.8M397.5,140.2c.4.4.8,1,1.4.8,0-.6-1-1.4-1.4-.8M398.9,152.8c-.4,0-1-.4-1.4,0,0,.6,1.4,1,1.4,0M398.5,141.2c-.2,0-.2-.2-.4-.2,0,.4-.6.6-.2,1,.4,0,.6-.2.6-.8M399.2,33.8c-.2-.8-1-.6-1.2,0,.4.4.8.2,1.2,0M399.8,39.6c-.4.2.8.8.4,1-.4-.4-1.4-.8-1.7-.6.2.8,1.7,1.6,2.3.8-.6,0,.4-1.4-1-1.2M400.4,140.6c.6-.2.6-.4,1.4-.4,0-1.2-1.4-1-1.9-1.4-.6.4.6.6.2,1-.2-.2-.4-.6-.8-.6-.4.6.6.8.8,1.4-.4,0-1-.2-1.2.2.4,1.4,2.1,1,3.1,1.2-.2-.8-1.2-1-1.6-1.4M399.2,43.3c0,.6,1.4.6,1.6.4.2-1-1.2-1.2-1.6-.4M399.8,127.2c-.4.6.2,2.1,1,1.7-.4-.6-.6-1.4-1-1.7M401.4,72c-.2-.2-1-.2-1.2,0,0,.8,1.2,1,1.2,0M402,41.2c-.4-.2-1.2-.4-1.2.2.4.2,1,.4,1.2-.2M402.3,127c-.6-.6-1.2.2-.8.8.4-.2.6-.4.8-.8M402.9,140.2c-.2.4-.6.4-.6.8.6,0,1,1,1.6.6-.2-.6-.6-1-1-1.4M402.9,125.3c-.4.4-.6,1.2,0,1.4.4-.4.8-1.2,0-1.4M402.9,137.1c-.6.4.8,1.2,1,.6-.4-.2-.6-.6-1-.6M403.1,82.5c0,.6.8.6,1.2.4,0-.6-.8-.8-1.2-.4M405.1,123.4c0,.8,1-.2,1.4.4.2-.2.2-.4.4-.4-.2-1-1.2-1.2-1.6-1.6.2-.2.2-.6.2-1-.4-.8-2.3-.4-1.6.4.6,0,.4-.4.6-.4,0,0,.2,0,.2.2s-.6.2-.6.4c-.2.6.4,1.2.2,1.4-.8-.6-.6,1-1,1.6.4,0,.6.4,1,.4.2-.8-.2-1.4.8-1.4M403.9,41.2c0,.4.6.6,1,.4,0-.6-.6-.8-1-.4M404.9,144.3c0,.4.8.6,1,.4.2-.6-.6-.8-1-.4M409.1,123.4l-1-.6-.4.8c.4.4,1.4.4,1.4-.2M409.9,123.2h-.4c-.6.8,1.6,2.3,1.7,1.2-.4-.2-1.2-.4-1.4-1.2M411.3,123.2c-.2-.4-.2-.8-1-.8-.2.4.2,1,.6,1,0-.2.2-.2.4-.2M413.2,70.8c-.4.4,0,.8.4,1,.4-.4.2-1-.4-1M414.6,80.9c0,.4.6.6,1,.4,0-.6-.6-.8-1-.4M415.3,33.8c1.2,0,2.3,1.7,3.3.8-.6-.6-2.3-1.7-3.3-.8M416.5,89.2c-.4.6.2,1.2.8,1.2.2-.4-.2-1.2-.8-1.2M422.1,161.2c-.2-.2-1-.2-1.4,0,0,.8,1.4.8,1.4,0M421.1,41.2c.4.4,1,.6,1.7.8,0-.6-1.4-2.3-1.7-.8M421.5,36.5c0,.6.6.8,1,.6,0-.6-.6-.8-1-.6M424.2,158.4c-.8-.2-.4-.6-.8-.8-.4.2-.8.4-.8.8.6,0,.8.2,1.2.6l.4-.6ZM425.2,159.2c.4,0,.4.4.6.6,0,.4-.6-.2-.6.4-.6-.2-.2-1,0-1M438.8,57.3c0-.6-.8-.6-.6-1.4.4,0,.6.2.8,0,.2-1-.8-.4-1.2-.8,0,.6-.2,1.2-.2,2.1.2.2,1,.2,1.2,0M440.5,135c0-.6-.2-1,.2-1.4,0,.4,0,.6.2.6.4-.4,0-1.2-.2-1.6h.6c.2.2,0,.4.4.6.4.2.6-.2.8-.4-.2-.2-.4-.2-.4-.4.2-.2.4-.4.2-.8.2.2.6.2.8,0,0-.4-.2-1,.2-1s.8.4,1.6.2c.2-.2.4-.4.4-.6-.2-.4-.6.2-.8-.2,0-.6.8-.4,1.4-.4.2-1.7,1.6-3.3,2.9-3.9,0-.6-.4-.8-.4-1.2.4-.2.4-.6.4-.8,1.2,0,2.1,1.4,3.1.8-1.6-.8-2.3-1.4-4.1-1.7-.4,2.7-1,5.4-3.7,5.8-.6,1.4-1.9,1.6-3.3,1.9,0,.8.8.4.8,1-.8.2-.4-.8-1.2-.8-.4.6.4,1.4,0,1.7-.4,0-.8,0-1,.2.4,1-1,1-.8,2.3l1.2.6c0-.4.4-.8.8-.8M439.9,45c-.2-.2-.6-.6-1-.2v.4c.2.2,1,.2,1-.2M444.6,153.2c-.2.8.6.8,1,.6,0-.4-.6-.8-1-.6M446.3,158.2c0,.2-.2.2-.2.4.4,0,.4.6,1,.6.2-.4-.4-1-.8-1M447.3,50.7c-.8,0-.8.8-.4,1.2.6,0,.8-.8.4-1.2M447.7,154.4c-.6.2-.6-.2-1,0,0,.8,1.6,1.6,1.9.6-.2-.2-.8-.2-1,0v-.6ZM447.7,42.3h-.4c-.8,1,1,1,.4,0M447.7,158.8c.2.6,1.2,1.2,1.4.4-.4-.2-.8-.8-1.4-.4M448.7,41.6c0,.2-.6.2-.6.6.4,0,.2.6.6.4.2-.2.6-1,0-1M450,125.5c0-.4-.8-.6-1.2-.4v.6c.2.2,1.2.2,1.2-.2M451.2,35.5c-.4-.8-1.4,0-1,.6.4,0,.8-.2,1-.6M452,125.3c.6.4,1.4,1.4,2.1.6-.6-.2-1.6-1.2-2.1-.6M452.7,49.1c0,.6.6.8,1,.4,0-.4-.6-.6-1-.4M454.7,126.5c0,.8,1.2,1.2,1.9,1.4.2-.8-1.2-1-1.9-1.4M458,153.8c-.2-.2-1.2-.4-1.2,0,.4.2.4.6,1,.4,0-.2.2-.2.2-.4M457.2,152.8c.4.2.8.8,1.2.4.2-.6-1-.8-1.2-.4M458.7,33.6c-1-.6-1.6,1.2-.6,1.6,0-.6.4-1,.6-1.6M458,158.8c.4,0,.8.4,1.2.2,0-.8-1-.8-1.2-.2M458.7,37.5c-.2,0-.2-.2-.4-.2-.2.2-.4.6-.2.8.4,0,.6-.2.6-.6M459.7,157.1c-.4-1-2.1-.4-1.4.6.8.2,1.2,0,1.4-.6M458.2,154.4c.4.2.6.8,1.2.8.4-.4-1-1.4-1.2-.8M458.7,129.2c1,.6,2.7,1.9,3.7,1.6-1.2-.4-2.5-2.1-3.7-1.6M458.9,155.7c.4.2.6.8,1.4.6.4-.4-1-1.4-1.4-.6M463,34.2c.2-.4-.2-1.2-.6-1.4-.4.4-.2.8,0,1.4h.6ZM463.2,131.1c.2,1,2.5,2.3,3.5,2.1-1-.8-2.1-1.6-3.5-2.1M467.3,43.5c-.2,0-.2-.2-.4-.4,0,.4-.8.2-.6,1,.4.2,1-.2,1-.6M469,40.6c-.6,0-.4,0-.8-.6.4.2.6,0,.8-.4-.4,0-.4-.4-.8-.4-.2.4-.4.8,0,1-.4,0-.6.2-1,.4,0,.2.2.4.2.8-.2-.2-.4-.2-.6,0,0,.8,1.2.2.8,1.2l1.2.6c.4-.6,0-1.7.2-2.5M468.2,77.2c.6-.2.6.2,1,0v-.8c-.6-.4-1-.6-1.6-.6-.2.4.2,1.4.6,1.6-.4.2-1,.4-1,.8.2.4.4.4.8.6.4-.4.4-1.4.2-1.6M469,53c-.2-.6-1.2-1-1.6-.4.4.2,0,.8.2,1,.6-.6.8-.6,1.4-.6M469,68.5c.2-.2.2-1.2-.2-1.2-.2.8-.6,0-1.2,0-.2.2.2.6,0,1.2.4,0,.6-.2,1.4,0M468.1,30.3c-.4.4-.2,1.4.4,1.4.4-.6,0-1.2-.4-1.4M468.8,50.5c.2-.2.4-1-.2-1,0,.4-.8.2-.6,1,.2.2.4.2.8,0M468.4,54.4c0,.2-.4.2-.4.2,0,.6.6.8.8,1,.4-.4,0-1-.4-1.2M471.7,140c.4.2.4-.2.6-.2.2.2,1.4.4,1.4,0-1.4-.6-1.7-1.2-3.1-1.7,0,.2-.2.2-.4.4.8.6.6,1.6,0,2.1.4.8,1,.2,1.6.2.4-.4,0-.4,0-.8M472.3,137.7c-.2-.2-.8-.2-.8-.4.2-.2,0-.4.2-.6-1.6-1.4-1.9.6-.6,1,0,.4.2.6.2.6.8.2.8-.2,1-.6M470.6,149.1c.6,0,1,.4,1.4.6.2-.6-1.2-1.7-1.4-.6M472.1,144.9c-.4,0-.4-.4-.8-.4,0,.4-.6.4-.6.8.4.2.6.4,1,.4l.4-.8ZM473.5,140.8c-.6,0-.6-.6-1.4-.6,0,.4-.2.4-.2.8.4.2,1.4.6,1.6-.2M475.2,139.1c-.6-.2-.8.4-1,.2.2-.2.4-.2.4-.4-.4-.2-.6-.6-1-.6-.2.2-.2.6-.4.6-.2-.4-.8-.6-1.2-.4.6.8,1.6,1,2.1,1.6-.4,0-.2-.2-.6,0,.2.8,1.7,1,2.3,1-.4-.8-.2-1.4-.8-1.9M472.1,142.7c.4.6,1.2,1.6,1.9.8-.2-.8-1.2-1.6-1.9-.8M474.5,146.6c0,.4.6.8,1,.6,0-.6-.6-1-1-.6M476.6,145.5c0-.4-.2-.6-.6-.6,0,.2-.2.4-.2.6.2.2.8.2.8,0M477,143.5c-.2.4-.6.4-.6.8.4.2,1,.6,1.4.4,0-.4-.4-1-.8-1.2M477.6,142c0,.2-.2.2-.2.4.4.2.4.4.8.4.4-.2,0-.8-.6-.8M478.7,141.6c0,.6.6.4,1,.2,0-.4-.8-.4-1-.2"/>
        <path class="cls-1" d="M529.9,163.5c-1.6,2.5-4.3,1-7.2.2l-32.4-10.1c.2-.8-.2-1-.2-1.4.6,0,1,.2,1.4.4.2-.6-.6-1.2-1.6-1-.4-.6-.4-1.2.2-1.4-.4-1-1.4-1.4-1.6-2.5,0-.4.8-.2,1-.6-.2-.4-.2-.8-.8-.6,0-.4.6,0,.8-.4-.2-.4-.8-.2-1.2-.4,0-.8-.2-1.9.6-1.9-.2-.4-.6-.4-.6-.6,0-.6.4-.8.4-1.4.2-.8-1-.4-.8-1-.4-.4.2-.2.2-.6-1.2-1.4-.8-3.3-.6-5.2.4-.2.4.2,1,.2.2-1-1.6-1.2-1.9-1.9,0-.2.6,0,.6-.2-1.2-.8-.2-3.5-1.4-4.3.4-.6.2-1.2-.4-1.6,0-.2.6,0,.6-.2-.2-.4-.4-.6-1-.6.2-1.4-.8-4.1,1-4.3-.2.6.2,1.2,0,1.9.2.4,1,.6,1.7.8.4-.6-.6-1-1.2-1.2.6,0,.8-.8.4-1.2.6-.2.8-.4,1.2,0,.4-.4,0-.6,1-.8-.4-.4-.8-.6-1.4-.6-.8.2.4.6-.2,1-.6-.6-.8-.4-1.6-.4-.2-.2,0-.8-.4-.8.6-.2,1.4,1.2,1.9.2,0-.6-.6-.6-.8-1-.4-1,1-.8.2-1.4l34.5,10.3c2.3.6,4.8,1.7,7.2,1.4-.2-.6-.8-.6-1.2-.8,0-5.6.4-10.9.4-16.3-10.9-4.7-22.7-8.3-33.7-12.8.2-.4.4-1,.4-1.6.6.2.6,0,1-.2-.2-.2-.4-.4-.4-.8.4,0,.8,0,1-.2-.8-.4-1.2-2.7,0-3.1-.8-.4.6-2.7-1-2.7.4-.2.8-.2,1-.6-.2-.4-.4-.2-.6-.2,0-.6.4-.8,1-.6.2-.6.6-1.2-.4-1.2,0-.4,0-.8-.2-1-1,0-.8,1.6-.4,1.6,0,.8-.4-.4-1,0,.2,1.6.6,3.3,0,5.4-2.1,1.6-6.4.6-9.3,1-.6-3.1-.6-8.1-.6-12.2l-.2-32.6c1.4,0,2.1-.4,3.3-.4-.2.2-.6.4-.4,1,0,.4.4.4.6.6.4,0,.4-1.4,0-1.6,1.2-.4.8,1.4.6,1.6,1.2.2,1.4-.6,1.9-1.2-.2-.2-.4-.4-.8-.4.6-.2,1.7-.6,2.1-1.2,1,0,2.3-.2,2.5-1.4.6,0,.4,1,.8,1,1-.6-.4-1.7,1-1.9,0,.4.4.6.4,1,.6-.2.2-1,.4-1.6,1.7-.4,4.5-.6,5-1.7,1.2,0,2.1-.8,2.7-1.7,1.7,1,2.5,0,3.9-.8.2-.4-.2-.4,0-.8.6.8,1.2-.2,1.6-.8.6,0,.6.4,1,.4,1-2.3,3.9-2.3,5.4-3.5.2,1.2-.2,2.5.6,3.1.6-.6,1-1.4,1.2-2.5.4.2.8,0,1.2-.2,0-.4-.2-.6-.6-.4.4-1.2.6-2.1.8-3.3.4,0,.4.4.4.6.8-.4.4-1.2,0-1.6,1-1.2,1.4-2.7,2.5-3.7.4,0,.4.4,1.2.4.4-.6-1.2-.8-.2-1.4.4.2.2,1,1.2,1,.4-.4-.4-.8-.2-1.4.8-.2.8.2,1.4.2.2-.4-.6-.8-1-1,.8,0-.2-1.4.8-2.1h.4l37.2,12.8c.2.2-.4.6,0,.6,0,.2-.8-.2-.8-.2-.4.4-.6.4-1.2.4.2.6.6,1,1.4,1-.2.4-.8.4-.4,1-.8-.2-.6-1-1.2-1.2-.8.2-.8.6-1.9.8,1,.2,0,1.4.8,1.7.4-.2,1.2-1,.4-1.2.6-.4,1.7,0,1.7.8-.4,0-.6,0-.8.2,0,.2.2.4.4.4-.4.4-1,.4-1.2.6,0,.6.4.4.4.8-1.2-.2-1.6.4-1.4,1.4-.2,0-.6-.4-.8-.2,0,.4,0,.8.4.6-.6.6-1.6-.4-1.9,0,.2.6,1.2.6,1.2,1.6-.6,0-.6-.4-.8-.8-.4,0-.4.2-.6.4-.2.6.8.2.6.8,0,.8-.4-.2-.8,0,0,1.4-1.4,2.5-2.7,3.1-.2.4.2.4.2,1-1,.2-1.7-.6-2.3,0,.2.6,1.2.8.4,1.4-.2,0,.4-.4-.2-.4-.6-.2-.4.4-.8.4,0,.4.4.4.6.6-.6.2-1,.4-1,1h-1c-.6,0,.2.6-.2.8-.8,0-1.2,0-1.4.8-.2.4.2.4.2,1-.6,0-.6.2-1,0-.2.8-.8,1-.8,1.7-.4-.2-.6-.4-1-.2-.4.2.2.4.4.6-.8.8-2.1,1-2.5,2.3-.6.2-1-.2-1.2.4-.2-.4-.2-.8-.8-.8.2-.4.8-.2,1-.6-.6-.2-1.6-.6-2.1-.6,0,.6.4.8.8.8-.2.4-.8,0-1.2,0,.2,1,1.7,1.4,1.6,2.5-1,0-1.4.2-1.7,1.2l-23.1-7.9-.2,16.5s-1,0-1.4-.2c-.4.6.8,1,1.6,1.2.2.8.4,1.6,1.4,1.6s.2-.6.2-1c14.3,5,27.9,9.9,42.8,15.5.2.8-.2,1.4-.6,1.9-.6-.4-1.2-.4-1.7,0,0,.4.4.6.4,1,.4,0,.2-.8.8-.8,0,.2.2.6.6.8-1.2,1.4-1,3.3-1.7,4.3.4.4.8,1.6,0,1.9.6.6.2.2,0,.8-.2.8.2,3.1-.8,3.5-.2.6.6.4.6,1-1,0-1.2.6-1.4,1,0,.4.2.6.6.6-.4.6-1.6.2-1.9.8.6,1.4-.6,2.3-1.7,2.7.2.8,0,.8-.2,1.6-.4,0-.6-.2-.8-.2-.6.4-.6,1.6-1.6,1.9,1.4,1.6,0,3.3.8,4.7-.2.6-1,.6-1.2,1,0,.6.6.2.8.2v.8c-.2,0,0-.4-.4-.4-.8.6-.2,1-1,1.7,1.4,1.7,2.3-1.2,3.3-1,0-1,.8-1,.8-1.9.6.4.8-.4,1.2-.4,0-3.9,3.9-4.5,2.7-8.9,1.2.4,1.2-1.9,1.2-2.1,1.2-.2.4,1,.4,1.2-.6,10.1-.8,19.2-1.6,28.1-.4,0-.8-.2-1-.4-.4.4-1.6.8-2.1.2-.6,1.2-2.5.8-3.7,1.2,0-.4,0-.6.2-.8-.8,0-1.4-.6-1.7,0,0,.6.6.8.8,1.6-1.9.6-4.8,1-6.8.4-1.2,1-3.5.6-4.7,1.4-1.4-.4-2.1-.4-3.3-.8-.2-.2-.4.4-.2.4-.6-.2-1.6.2-1.9.8-1.6,0-2.9,0-3.5,1,3.1.4,7.2.2,9.9-1.2,1.6.6,3.7-1.4,5,0,.8-1,3.5-.6,4.1-1,.2,1-.8.6-.6,1.6-.6,0-1,.4-1.2,0,0,1.6-2.1,3.5-3.3,1.7-.4.6.6.8.6,1.2-.6,0-1.2.2-1.7,0-.2.2-1.6,1-1.2,2.1-.4.2-.8.2-1.2.4.2,1-.2,1.4-.2,1.9-.4.4-.4-.4-.8,0,0,.4,0,.6.4.6-.2.4-1,.6-1.6,1,.6,1.2-.2,2.3-1,2.7-.8,0-1.4-.2-1.9-.4-.4.6.8.8.8,1.4-.6,1.2-3.3,1.4-3.5.4.6-.2,1.7.2,2.1-.6-.6-.8-2.3-.2-3.3-.2.4,1.2,1.2,1.9,2.7,2.3.2,1.4-1.4,1.2-1.2,2.5-.4-.2-.8-.8-1.2-.4,0,.4.2.6.4.6,0,.2-.8,0-1,.2-.4.6.8.6.8,1-.8-.8-2.5,3.1-1.7,3.1-.4.6-.4-.6-1-.4-.6,0-.8.4-1,.8.4.8,1.2,0,1.9.2-.2.4-1,.4-1,1-.4,0-.4-.4-.6-.4M487.6,95.4c-.2-.2-.6-.4-1,0,.2.4.2,1,.8,1,.2-.2,0-.8.2-1M487.4,123.7c-.2.6,1,1,1.2.4-.6-.4-.6-.6-1.2-.4M488.8,123.6c.6.4,1.4,1.2,1.7.2-.6,0-1.4-.8-1.7-.2M489.8,60.2c-.6,0-.6.4-.8.6.4.2.8.4,1.2.2,0-.4-.4-.4-.4-.8M491.5,81.1c-.2,0-.2-.2-.4-.2-.4.4-.4,1.6.2,1.6,0-.2,0-.8.2-1.4M491.1,131.1c0,.6,1,.8,1,.2-.2-.2-.6-.6-1-.2M492.3,130.7c0-.6-.6-.8-1-.4v.4c.2.2.8.2,1,0M491.5,150.9c.2.4.6.8,1,.6,0-.6-.6-1-1-.6M492.1,149.3c-.2.4,0,1.2.6,1,.4-.4,0-1-.6-1M493.4,56.5c-.2-.4-.6-.6-1-1-.2.4.2,1.2.6,1.6,0-.2.2-.4.4-.6M492.9,125.1c.6.8,2.5,1.2,3.3.2-1.2-.4-2.3-.4-3.3-.2M495,150.3c-.4-.2-1.2-.6-1.4,0,.2.2,1.2.4,1.4,0M496.2,126.8c-.4-.2-1.6-.6-1.7,0,.4.2,1.6.8,1.7,0M496,78.4h-.6c-.4.8-.2,1.9.8,1.9.2-.6-.4-1.6-.2-1.9M497.1,88.5c-.6-1.4.4-3.3-.4-4.3-.2.2-.4.4-.2.8q-.4-.2-.6.2c.6.8.4,2.3.2,3.3,0,.2.8.2,1,0M498.1,80.1c-.2,0-.2-.2-.4-.2-.2,1-1.6,2.5-.6,3.5.4-1,.4-2.1,1-3.3M497.1,153.8c-.2.4,0,.6-.2,1,.4.2.8.6,1.2.2-.2-.6-.6-1-1-1.2M498.3,78.2c-.2,0-.2-.2-.4-.2-.2.4-.2,1-.4,1.4.2,0,.2.2.4.2.6.2.6-1,.4-1.4M498.1,74.7c.2-.2.6-.2,1-.4-1-2.7.6-4.5.6-6.4-1.6.2-.8,2.9-1.9,3.7.4.2.6.4.6.6-.4,1.7-.8,3.5-.2,5.2.8-1,.4-1.9,0-2.7M498.5,131.3c.4.2.8.6,1.2.4,0-.6-1-1-1.2-.4M498.9,134.4v.6c.2.2.8.4,1.2.2,0-.8-1-1-1.2-.8M499.8,135.6c.6,0,1,.6,1.2.4.2-.8-1-1.2-1.2-.4M501.2,144.7c0,.6.8,1,1,.4-.2-.2-.6-.6-1-.4M502.4,69.1c-.2.2.4.8,1,.8.2-.4-.4-1-1-.8M504.5,147.2c-.4,0-.4-.6-1-.6-.2.4.2,1.2.8,1.2,0-.4.4-.2.2-.6M506.2,150.3c-.2.6,1,.8,1.2.2-.4-.2-.8-.6-1.2-.2M506.2,148.8c.4,0,1,.4,1.4.2,0-.6-1.2-.8-1.4-.2M507.2,71c0,.4,1,.8,1,.2-.2-.2-.6-.6-1-.2M509.5,147.8c.2-.8-1-.8-1,0,.2.2.8.2,1,0M508.8,146.6c.4,0,.4.6.8.2.2-.4-.6-.8-.8-.2M514,72.6c-2.3.4-3.3-.8-5-1.2-.2.4.6.8,1.2.8,1,.2,2.9,2.5,4.5,1.4-.4-.2-.6-.6-.6-1M512.4,100.3c-.2-.6-1.6-1.4-1.9-.8.6.4.6.8.6,1.2.4-.4.8-.4,1.4-.4M511.1,67.1c-.4.4-.2,1,.2,1,.4-.2.4-1-.2-1M514.4,70.1c-.4,0-.2-.6-.8-.6,0,.4-.2.4-.2.8.4.2.8.2,1-.2M515.7,64l-.6-.4c-.4.4-.2,1.2.4,1.4.2-.4.4-.6.2-1M515.5,62.7c-.2.4,0,1.4.6,1.4.4-.6.2-1.6-.6-1.4M516.7,100.5c-.2.4-.2,1.2.4,1,.4-.2.2-1-.4-1M516.9,48c-.2,1-.4,3.5.2,4.3.2-1,.4-3.5-.2-4.3M516.9,52.4c-.2.4-.4,1.7.2,1.7.4-.2.4-1.6-.2-1.7M516.9,55.1c-.2.2-.4,1.4.2,1.2.4-.4.2-1.2-.2-1.2M518.6,77c-.8.2-1.4.2-1.7.8,1,.4,1.6,1.6,2.9,1.7,0-.8-1.2-1.4-1.2-2.5M518.6,160.2c-.6-.6-1.2,0-1.7,0,0,.6.6.8,1,1,0-1,.8-.2.8-1M517.1,90c.4.2,1.2.4,1.4.2,0-.8-1.4-1-1.4-.2M518.8,45c-.2-.4-1.4-.6-1.6,0,.4.2,1.4.8,1.6,0M517.3,86.3c.4.4,1.4,1,2.3.6-.2-.6-1.7-1.2-2.3-.6M517.5,46.6c-.2.4.4,1.2,1,.8,0-.6-.4-.6-1-.8M518.1,87.5c-.2.4-.6.8-.2,1,.4.2.2-.4.6-.4-.2.8.4,1.2,1,.8-.2-.8-.6-1.2-1.4-1.4M518.8,102.2c.4,0,.8.6,1.2.2,0-.6-1-.8-1.2-.2M520.6,36.1c.2.2.8.4,1.4.4.4-.4-1.2-1.2-1.4-.4M521,80.9c0,.2-.2.2,0,.6.2.2.8.6,1,.2,0-.6-.4-.8-1-.8M522.7,53.6c.2.6,1.2,1,1.7.8-.2-.6-1.2-1.2-1.7-.8M522.9,81.3c.2.6,1,1,1.2.2-.2-.2-.6-.6-1.2-.2M523.9,161.3c-.2.4,0,.4-.2,1,.6,0,.8,1,1.4.4-.4-.6-.4-1-1.2-1.4M524.1,89.2c.2.6,1.6,1.4,1.9.6-.8,0-1.4-1-1.9-.6M525,45c.6.2,1,1.2,1.6.8,0-.8-1.2-1.4-1.6-.8M526.8,45.6c.4.4,1.6,1.2,2.1.4-.4-.2-1.7-.8-2.1-.4M527.6,50.9c-.2.4-.6-.2-.8.2,0,.4.6.4.2.8.4.2.6.4,1,.4.4-.4,0-1.2-.4-1.4M527,32.1c.4.2.8,1,1.6.6,0-.8-1.4-1.2-1.6-.6M529.9,141.8c.4-.4.4.4,1,.4,0-.4.4-.2.2-.6-.2-.2-.6-.2-.6-.6-1.4,1-2.3-.4-3.3.4,1.4,0,2.3,1.9,3.7,1-.2-.2-.8-.2-1-.6M527.2,163.3c0,.6,1.4.8,1.6.2-.4-.2-1-.6-1.6-.2M527.8,146.8c.2,1,1.2.4,1.7.4-.2-1-1.2-.6-1.7-.4M528.1,37.5c.6.4,2.1,1.4,2.9.6-.8-.4-2.1-1.2-2.9-.6M528.5,151.3c0,.8,1.4,1.4,1.4.4-.4-.2-1-.6-1.4-.4M529.5,32.4c-1,.8,1.2,1.2,1.2.2-.2-.2-.8,0-1.2-.2M531.4,94.1l1,.4c.2-.4.2-.6.6-.8,1.4-.2,1.6.8,2.7.8.2-.2,0-.8-.2-1-.6.2-.6-.2-1-.4-1.2.4-2.5-.8-3.1.6,0-.4.4-.4.4-.8-.4-.2-.8-.4-1-.6-.6.4,0,.6.2,1.2-.6.4-1.2,0-1.6.4.6.4,1,.8,1.9.6.2-.2-.2-.2,0-.4M531,130.1c-.2.4-.6.4-.8.6,0,.6.2.8.8.6.2-.4.6-1,0-1.2M530.5,35.9c-.2.6,1,.8,1.2.2-.2-.2-.8-.6-1.2-.2M530.7,31.1c.2.2,1,.6,1.4.2,0-.8-1.2-.6-1.4-.2M532,142.4c-.2,0-1-.6-1.2,0,.2.2,1.2.8,1.2,0M532.4,84c-.4-.2-.6-.6-1-.6-.4.4,0,.8,0,1,.6,0,.8,0,1-.4M533,84.6c.6.2,1.6.4,1.9.4,0-1.2-1.9-1.7-1.9-.4M534.9,41.8c0-.6-.2-.8-1-.8,0,.4.4.4-.2.8.4.4.8.4,1.2,0M534.9,132.1c0-.2.4-.4.2-.8-.2-.2-.2-.4-.4-.4,0,1-.8.4-1,1,.6.4,1.6,1.4,2.1.4-.2-.4-1,0-1-.2M536.1,92.3c0,.2-.2.2-.4.2,0,.8,1.6,1.4,1.7,1l-1.4-1.2ZM536.9,139.8c.8.2,0,1.2-.6,1.4-.6-.8.8-.2.6-1.4M540.9,133.2c-1.4-.2-1.4-1-2.7-1.2-.2.4.2.6-.4.8,0-.6-.6-.6-1-.6-.2.4.2,1,.4,1.4,1,0,2.3.6,3.3,1,.2-.4.4-.8.4-1.4M537.6,141.6c.2.8,1.4,1,1.7,1,0-1-1.2-1.2-1.7-1M539.4,40c-.4-.2-.8,0-1.4-.2,0,.2-.2.4-.2.6.2.2.8.4,1.2.4.2-.2.2-.6.4-.8M541.1,92.1c-.2-.4-.4.2-1,0l-.6-1c-1-.2-1.6.2-1.7.8,1,.2,1.9.4,2.9,1,0-.4.4-.4.4-.8M538,145.8c-.4.4.8,1.4,1,.6l-1-.6ZM539.4,147.8l-1.2-.6c-.4.6.2,1,.8,1,0-.2.4-.2.4-.4M539.6,143.3c-.2-.2-1-.4-1.2,0-.2.6,1.2,1,1.2,0M540,62.9c-.2.4-.6.2-.6.6.2.4.8.6,1,.2.2-.6-.2-.6-.4-.8M540,90.4c.2.6,1.2,1.7,1.9,1-.8,0-1-1.4-1.9-1M540.5,141.2c-.2.8,1,1.4,1.4.6-.6,0-1-.8-1.4-.6M540.5,41.2c.6,1.2,3.3,1.6,4.3,1.6-.4-1.4-2.9-1.6-4.3-1.6M542.5,134.6c-.4-.4-.8-.8-1.2-1-.4.4,0,1.2.2,1.6.4-.2.8-.4,1-.6M541.9,133c.2-.6-.2-.8-.6-.8-.2.2-.2.8,0,1,.2,0,.6,0,.6-.2M547.3,39.4c-1-.4-2.5-.4-3.3-1.2,0,.4-.4.2-.4.8.2.2,1,.2,1,.8-1-.2-1.7-1.4-2.7-1.2,0,1.7,2.3,1.2,3.1,1.7.6-.6,2.3,0,2.3-1M544.2,90c-.4-.2-.6-.6-1.2-.6,0,.2-.2.4-.2.6.4.2,1.2.6,1.4,0M543.1,44.3c.2.2,1,.8,1.4.2-.2-.4-1.2-.8-1.4-.2M543.6,45.2c0,.6.6,1.2,1.2.8,0-.6-.6-1.2-1.2-.8M550.8,92.9c.2.2.6.6.8.4-.6-1-1.6-2.1-2.9-1.4,0-.4.6-.2.6-.8-1.7-.2-4.1-1.9-5.2-.6.8.2,1,1.2,2.3.8-.2,1,1.7,2.1,2.5,1.4,0,.4,0,.6.2.8.8,0,1.2-.4,1.7-.6M548.5,44.5c.4,0,.4-.2.6-.4-1.4-.4-3.3-.8-4.3-.4,1.7.8,4.1,1.9,5.8,2.3-.2-1.2-1.6-1-2.1-1.6M546.4,46c-.2-.2-1.2-.6-1.4,0,.2.2.4.8,1,.8.2-.2.4-.2.4-.8M545.8,140.2c-.6,0-.6.4-.8.8.4,0,.8.2,1.4.2.2-.4-.6-.6-.6-1M546.9,42.5c-.2-.4-.4-.8-1-.8-.2.4-.4.4-.4.8.4.4,1,.6,1.4,0M546.9,55.3c-.6.4.2,1.2.6.8,0-.4-.2-.8-.6-.8M546.9,91.4c0-.2.6.2,1,0,0,.4-.4.4-.8.4q0-.2-.2-.4M547.3,54c-.2.2.4.8.4,1.2.8,0,.6-1.4-.4-1.2M547.5,89.4c.4.4,1.2.8,1.6.4.2-1-1.2-.8-1.6-.4M549.5,51.1c-.6,0-1.4-.8-1.7,0,.4.2,1.4,1,1.7,0M547.9,135.8c-.2.2-.2.8,0,1,.6.2.6-.8,0-1M550.8,42.5c-1,.2-1.4-1.4-1.9-.4.2.6,1.9.6,1.6,1.6.6-.2,1,1.4,1.9.8-.2-1-1.4-1-1.6-1.9M549.9,47c.2.6,1.4,1,1.7.4-.2-.4-1.4-1-1.7-.4M557,93.1c-.4.2.2.4-.2.6,0-.2-.4,0-.4-.2.2,0,.4-.2.4-.4-.4-.4-1-1-1.6-.4,0-1.6-3.1-1-4.5-.8.4.4.8.8,1.7.8,0,.2-.4.4-.2.8.8,0,1.6-.2,1.9-.4,1.4,1.4,3.1,1.6,5,1,0-1.4-1.2-.6-2.3-1M553.3,49.1c-.6-.2-.8-.8-1.6-.8-.2.2-.2.6-.2,1,.4-.2,1.6.4,1.7-.2M553.1,118.1c1-.2,1.2.4,1.2,1.2-.6-.2-1-.6-1.2-1.2M554.3,43.1c.6.2,1,.6,1.7.6.6-.6-1.2-1.4-1.7-.6M554.3,114.1c.2.2.8.4,1.2.4-.4.6-.4.8-1.2.8v-1.2ZM554.9,90.8c.4.2.6.4,1,.4.6-.4-.8-1.2-1-.4M555.1,45.4c.4.2,1.4.8,1.7.6,0-.8-1.4-1.4-1.7-.6M556.8,92c-.4-.2-1-.6-1.4-.2,0,.6.6.6,1,.8,0-.2.2-.4.4-.6M556.1,112.7s0,.4.2.4c0,.2-.6,0-.8,0,0-.2.6-.2.6-.4M555.7,119.3c-.4.4,0,1,.4,1,.4-.4,0-1-.4-1M556.2,111.3c1-1,1.9,0,2.3,1-.4,0-1.7-.6-2.3-1M560.9,96.8c.6,2.1-.2,4.7,0,7.2-.8-1.7-.4-5.2,0-7.2M563.4,39.8c.4-.2.4.2.6.2,0,.4-.8.2-.6-.2"/>
      </g>
    </g>
  </g>
</svg>